<svg width="225" height="159" viewBox="0 0 225 159" fill="none" xmlns="http://www.w3.org/2000/svg">
<path d="M206.497 57.8512C206.602 57.3966 206.573 56.9212 206.413 56.4827C206.253 56.0443 205.97 55.6616 205.597 55.3812L194.927 47.1412C194.639 46.9244 194.404 46.6453 194.24 46.325C194.075 46.0046 193.985 45.6513 193.977 45.2912C193.977 44.9212 193.977 44.5412 193.977 44.1612C193.977 43.2412 193.837 42.3312 193.717 41.4312C193.666 41.072 193.697 40.7061 193.806 40.3601C193.915 40.0141 194.1 39.6968 194.347 39.4312L203.597 29.5912C203.923 29.2509 204.143 28.8222 204.228 28.3583C204.314 27.8943 204.261 27.4155 204.077 26.9812C203.327 25.2653 202.475 23.5957 201.527 21.9812C201.285 21.5768 200.929 21.2523 200.504 21.0479C200.079 20.8435 199.604 20.7682 199.137 20.8312L185.737 22.5512C185.374 22.5957 185.005 22.5577 184.659 22.4399C184.313 22.3222 183.997 22.1278 183.737 21.8712C182.789 20.9494 181.787 20.0846 180.737 19.2812C180.485 19.0954 180.278 18.8549 180.133 18.5777C179.987 18.3006 179.907 17.9941 179.897 17.6812L179.597 4.00124C179.588 3.53085 179.441 3.07342 179.174 2.68583C178.908 2.29824 178.533 1.99759 178.097 1.82124C176.347 1.13117 174.557 0.546781 172.737 0.07124C172.28 -0.0424411 171.799 -0.0196751 171.355 0.136723C170.911 0.293121 170.522 0.576295 170.237 0.95124L161.997 11.6212C161.779 11.9082 161.5 12.1426 161.18 12.307C160.86 12.4715 160.507 12.5618 160.147 12.5712H159.017C158.097 12.5712 157.187 12.7112 156.287 12.8312C155.928 12.8815 155.562 12.851 155.216 12.742C154.87 12.6331 154.552 12.4483 154.287 12.2012L144.497 2.91124C144.156 2.58457 143.728 2.36497 143.264 2.27964C142.8 2.19432 142.321 2.24703 141.887 2.43124C140.171 3.18098 138.501 4.0325 136.887 4.98124C136.468 5.21448 136.128 5.56745 135.91 5.995C135.693 6.42254 135.608 6.90521 135.667 7.38124L137.387 20.7812C137.431 21.1443 137.393 21.5127 137.275 21.859C137.158 22.2053 136.963 22.5205 136.707 22.7812C135.785 23.7292 134.92 24.731 134.117 25.7812C133.931 26.0331 133.69 26.2396 133.413 26.3851C133.136 26.5306 132.83 26.6113 132.517 26.6212L118.837 26.9812C118.366 26.9901 117.909 27.137 117.521 27.4036C117.134 27.6703 116.833 28.0451 116.657 28.4812C115.967 30.2313 115.382 32.0212 114.907 33.8412C114.793 34.2984 114.816 34.7788 114.972 35.2231C115.129 35.6674 115.412 36.0561 115.787 36.3412L126.457 44.5812C126.744 44.7986 126.978 45.0778 127.143 45.398C127.307 45.7182 127.397 46.0714 127.407 46.4312C127.407 46.8012 127.407 47.1812 127.407 47.5612C127.407 48.4812 127.547 49.3912 127.667 50.2912C127.717 50.6505 127.687 51.0164 127.578 51.3624C127.469 51.7083 127.284 52.0257 127.037 52.2912L117.747 62.0812C117.42 62.4216 117.2 62.8503 117.115 63.3142C117.03 63.7782 117.083 64.257 117.267 64.6912C118.017 66.4072 118.868 68.0768 119.817 69.6912C120.059 70.0957 120.415 70.4202 120.839 70.6246C121.264 70.829 121.74 70.9043 122.207 70.8412L135.597 69.1812C135.96 69.1368 136.328 69.1748 136.674 69.2925C137.021 69.4103 137.336 69.6047 137.597 69.8612C138.515 70.7458 139.483 71.5771 140.497 72.3512C140.793 72.5655 141.037 72.8442 141.21 73.1664C141.384 73.4886 141.481 73.8458 141.497 74.2112L141.847 87.7212C141.856 88.1916 142.002 88.6491 142.269 89.0367C142.536 89.4242 142.911 89.7249 143.347 89.9012C145.097 90.5913 146.887 91.1757 148.707 91.6512C149.164 91.7649 149.644 91.7422 150.089 91.5858C150.533 91.4294 150.922 91.1462 151.207 90.7712L159.447 80.1012C159.664 79.8143 159.943 79.5799 160.264 79.4155C160.584 79.251 160.937 79.1607 161.297 79.1512H162.427C163.347 79.1512 164.257 79.0112 165.157 78.8912C165.516 78.841 165.882 78.8715 166.228 78.9804C166.574 79.0894 166.891 79.2742 167.157 79.5212L176.947 88.8112C177.287 89.1379 177.716 89.3575 178.18 89.4428C178.644 89.5282 179.122 89.4755 179.557 89.2912C181.273 88.5416 182.942 87.6901 184.557 86.7412C184.965 86.5079 185.297 86.1602 185.51 85.7408C185.723 85.3214 185.809 84.8488 185.757 84.3812L184.037 70.9912C183.992 70.6282 184.03 70.2598 184.148 69.9135C184.266 69.5672 184.46 69.2519 184.717 68.9912C185.601 68.0728 186.433 67.1045 187.207 66.0912C187.421 65.7948 187.7 65.5509 188.022 65.3777C188.344 65.2045 188.701 65.1065 189.067 65.0912L202.597 64.7112C203.067 64.7024 203.525 64.5555 203.912 64.2888C204.3 64.0221 204.6 63.6474 204.777 63.2112C205.457 61.4605 206.031 59.6707 206.497 57.8512ZM154.787 62.2712C151.453 61.0609 148.553 58.8897 146.453 56.032C144.353 53.1743 143.147 49.7583 142.988 46.2155C142.828 42.6726 143.722 39.162 145.557 36.1271C147.392 33.0922 150.085 30.6692 153.296 29.1641C156.507 27.659 160.092 27.1395 163.599 27.6711C167.105 28.2027 170.375 29.7615 172.996 32.1508C175.617 34.54 177.47 37.6524 178.323 41.0947C179.176 44.5371 178.989 48.1549 177.787 51.4912C176.987 53.711 175.757 55.751 174.167 57.4947C172.577 59.2383 170.66 60.6513 168.523 61.6527C166.387 62.654 164.074 63.2241 161.717 63.3302C159.359 63.4364 157.005 63.0765 154.787 62.2712Z" fill="#303030"/>
<path d="M90.3868 45.2713C90.3522 44.932 90.2192 44.6103 90.0043 44.3456C89.7893 44.0809 89.5017 43.8847 89.1768 43.7813L79.8768 40.7813C79.6309 40.7062 79.4048 40.5776 79.2146 40.4047C79.0244 40.2318 78.8749 40.0189 78.7768 39.7813C78.6568 39.5146 78.5534 39.2546 78.4668 39.0013C78.2068 38.3813 77.9268 37.7813 77.5968 37.2013C77.4807 36.9612 77.4205 36.6979 77.4205 36.4313C77.4205 36.1646 77.4807 35.9014 77.5968 35.6613L81.5268 26.6613C81.6665 26.349 81.7116 26.0025 81.6565 25.6648C81.6014 25.3271 81.4485 25.013 81.2168 24.7613C80.2738 23.7686 79.272 22.8336 78.2168 21.9613C77.9521 21.7458 77.6299 21.6129 77.2903 21.5791C76.9507 21.5453 76.6087 21.6121 76.3068 21.7713L67.5968 26.2913C67.3595 26.4049 67.0998 26.4638 66.8368 26.4638C66.5737 26.4638 66.314 26.4049 66.0768 26.2913C65.1941 25.9045 64.2891 25.5705 63.3668 25.2913C63.1436 25.2315 62.9372 25.121 62.7637 24.9684C62.5903 24.8157 62.4544 24.6251 62.3668 24.4113L58.7568 15.1713C58.6353 14.8521 58.4227 14.5757 58.1453 14.3766C57.8679 14.1774 57.538 14.0643 57.1968 14.0513C55.8354 14.013 54.4729 14.0564 53.1168 14.1813C52.7734 14.2095 52.446 14.3384 52.1756 14.5519C51.9052 14.7653 51.7039 15.0539 51.5968 15.3813L48.5968 24.6813C48.5217 24.9271 48.3931 25.1533 48.2201 25.3435C48.0472 25.5337 47.8343 25.6832 47.5968 25.7813L46.8368 26.0813C46.2168 26.3413 45.6168 26.6213 45.0368 26.9313C44.802 27.0583 44.5415 27.1306 44.2748 27.1427C44.0081 27.1549 43.7421 27.1065 43.4968 27.0013L34.4968 23.0713C34.1844 22.9316 33.838 22.8864 33.5003 22.9415C33.1626 22.9966 32.8485 23.1495 32.5968 23.3813C31.6041 24.3242 30.6691 25.326 29.7968 26.3813C29.5813 26.6459 29.4484 26.9681 29.4146 27.3077C29.3808 27.6473 29.4476 27.9894 29.6068 28.2913L34.0768 37.0013C34.1903 37.2385 34.2493 37.4982 34.2493 37.7613C34.2493 38.0243 34.1903 38.284 34.0768 38.5213C33.6899 39.404 33.356 40.3089 33.0768 41.2313C33.017 41.4545 32.9065 41.6609 32.7539 41.8343C32.6012 42.0078 32.4106 42.1436 32.1968 42.2313L22.9568 45.8413C22.6537 45.972 22.3941 46.1862 22.2082 46.4588C22.0222 46.7315 21.9177 47.0514 21.9068 47.3813C21.8685 48.7427 21.9119 50.1051 22.0368 51.4613C22.0713 51.8005 22.2043 52.1223 22.4193 52.387C22.6342 52.6517 22.9218 52.8478 23.2468 52.9513L32.5468 55.9513C32.7926 56.0264 33.0187 56.155 33.2089 56.3279C33.3991 56.5008 33.5487 56.7137 33.6468 56.9513C33.7401 57.2046 33.8401 57.458 33.9468 57.7113C34.2068 58.3313 34.4868 58.9313 34.7968 59.5113C34.9238 59.7461 34.9961 60.0066 35.0082 60.2733C35.0203 60.5399 34.972 60.8059 34.8668 61.0513L30.9368 70.0513C30.797 70.3636 30.7519 70.7101 30.807 71.0477C30.8621 71.3854 31.015 71.6996 31.2468 71.9513C32.1897 72.944 33.1915 73.879 34.2468 74.7513C34.5114 74.9668 34.8336 75.0997 35.1732 75.1335C35.5128 75.1673 35.8548 75.1004 36.1568 74.9413L44.8668 70.4713C45.1055 70.3568 45.367 70.2974 45.6318 70.2974C45.8966 70.2974 46.158 70.3568 46.3968 70.4713C47.2403 70.8538 48.1051 71.1876 48.9868 71.4713C49.2356 71.5451 49.4651 71.673 49.6587 71.8459C49.8524 72.0187 50.0054 72.2323 50.1068 72.4713L53.6768 81.6013C53.7982 81.9205 54.0109 82.1968 54.2882 82.396C54.5656 82.5952 54.8955 82.7083 55.2368 82.7213C56.5981 82.7595 57.9606 82.7161 59.3168 82.5913C59.656 82.5567 59.9777 82.4238 60.2425 82.2088C60.5072 81.9938 60.7033 81.7062 60.8068 81.3813L63.8068 72.0813C63.8818 71.8355 64.0105 71.6093 64.1834 71.4191C64.3563 71.2289 64.5692 71.0794 64.8068 70.9813L65.5668 70.6813C66.1868 70.4213 66.7868 70.1413 67.3668 69.8313C67.6015 69.7042 67.862 69.6319 68.1287 69.6198C68.3954 69.6077 68.6614 69.6561 68.9068 69.7613L77.9068 73.6913C78.2191 73.831 78.5655 73.8761 78.9032 73.821C79.2409 73.7659 79.555 73.613 79.8068 73.3813C80.796 72.4381 81.7277 71.4363 82.5968 70.3813C82.8123 70.1166 82.9452 69.7945 82.9789 69.4549C83.0127 69.1152 82.9459 68.7732 82.7868 68.4713L78.3168 59.7613C78.2023 59.5225 78.1429 59.2611 78.1429 58.9963C78.1429 58.7315 78.2023 58.4701 78.3168 58.2313C78.6992 57.3877 79.0331 56.523 79.3168 55.6413C79.3905 55.3924 79.5184 55.1629 79.6913 54.9693C79.8642 54.7757 80.0778 54.6227 80.3168 54.5213L89.4468 50.9513C89.7581 50.8215 90.025 50.604 90.215 50.3252C90.4049 50.0465 90.5098 49.7185 90.5168 49.3813C90.5562 48.0099 90.5128 46.6374 90.3868 45.2713ZM56.2068 61.0113C53.6356 61.0113 51.1222 60.2488 48.9843 58.8204C46.8465 57.3919 45.1803 55.3616 44.1963 52.9862C43.2124 50.6107 42.9549 47.9969 43.4566 45.4751C43.9582 42.9534 45.1963 40.637 47.0144 38.8189C48.8325 37.0008 51.1488 35.7627 53.6706 35.2611C56.1923 34.7595 58.8062 35.0169 61.1816 36.0009C63.5571 36.9848 65.5874 38.651 67.0159 40.7889C68.4443 42.9267 69.2068 45.4401 69.2068 48.0113C69.2068 51.4591 67.8371 54.7657 65.3991 57.2037C62.9612 59.6416 59.6546 61.0113 56.2068 61.0113Z" fill="#303030"/>
<path fill-rule="evenodd" clip-rule="evenodd" d="M121.929 138.325C123.11 137.832 124.46 137.559 126.133 137.627C126.142 137.627 126.151 137.628 126.159 137.628C126.166 137.629 126.175 137.628 126.182 137.628L126.181 137.629C128.836 137.701 131.36 138.805 133.212 140.711C135.074 142.628 136.109 145.201 136.091 147.874V147.885C136.061 150.533 135.014 153.069 133.168 154.967C131.321 156.865 128.816 157.981 126.17 158.084H126.163C122.643 158.21 120.683 156.841 119.075 155.759C117.634 154.79 116.433 154.006 113.947 154.006C111.862 154.006 110.702 154.75 109.066 155.789C107.344 156.883 105.211 158.208 101.682 158.084H101.672L101.66 158.083C99.0155 157.963 96.5122 156.854 94.6462 154.977C92.7805 153.099 91.6877 150.59 91.5837 147.945L91.5807 147.867L91.5827 147.789C91.6726 145.137 92.7635 142.616 94.6354 140.735C96.499 138.862 98.9997 137.762 101.638 137.651V137.649C105.069 137.458 107.131 138.837 108.794 139.915C110.357 140.929 111.624 141.726 113.976 141.726C116.561 141.726 117.758 140.923 119.147 139.96C119.869 139.46 120.791 138.799 121.929 138.325ZM101.757 143.911C99.5475 143.912 97.7565 145.684 97.7565 147.871C97.7566 150.058 99.5476 151.831 101.757 151.831C103.966 151.831 105.756 150.058 105.757 147.871C105.757 145.684 103.966 143.911 101.757 143.911ZM126.087 143.911C123.878 143.912 122.087 145.684 122.087 147.871C122.087 150.058 123.878 151.831 126.087 151.831C128.296 151.831 130.087 150.058 130.087 147.871C130.087 145.684 128.296 143.911 126.087 143.911Z" fill="#303030"/>
<path fill-rule="evenodd" clip-rule="evenodd" d="M46.9297 128.717C49.203 127.381 51.8931 126.946 54.4707 127.494L54.4717 127.493C54.4845 127.496 54.4971 127.499 54.5098 127.502C54.5165 127.503 54.5236 127.503 54.5303 127.505L54.5293 127.506C57.4569 128.075 59.0776 129.558 60.3262 130.898L61.3037 131.965C62.3699 133.108 63.3941 134.008 65.3731 134.524C67.8744 135.173 69.239 134.699 70.8301 134.118C71.6562 133.817 72.7157 133.412 73.9366 133.24C75.2154 133.061 76.6049 133.139 78.2256 133.641L78.2246 133.642C80.7866 134.378 82.956 136.095 84.2598 138.422C85.5715 140.763 85.8993 143.529 85.1729 146.112C84.4603 148.661 82.8007 150.843 80.5332 152.208C78.2655 153.573 75.5611 154.02 72.9746 153.457L72.9668 153.456C69.5342 152.695 67.98 150.88 66.6963 149.427C65.5451 148.123 64.5885 147.064 62.212 146.437C60.1881 145.91 58.8717 146.338 57.0235 146.93C55.0795 147.552 52.6798 148.294 49.2998 147.287L49.2784 147.281C46.7488 146.498 44.6076 144.788 43.2832 142.495C41.9591 140.202 41.5492 137.494 42.1348 134.911L44.2071 135.381L42.1729 134.767C42.9407 132.223 44.6392 130.063 46.9297 128.717ZM76.4864 139.691C75.4641 139.419 74.3754 139.563 73.459 140.092C72.5428 140.62 71.8732 141.491 71.5967 142.512C71.4662 143.021 71.4372 143.552 71.5118 144.072C71.5864 144.593 71.7629 145.094 72.0313 145.546C72.2997 145.998 72.655 146.393 73.0762 146.708C73.4974 147.023 73.9767 147.251 74.4864 147.381C74.9946 147.515 75.525 147.548 76.0459 147.478C76.5667 147.407 77.0685 147.234 77.5225 146.97C77.9765 146.705 78.3743 146.354 78.6924 145.936C79.0106 145.517 79.2433 145.04 79.377 144.531C79.6317 143.506 79.471 142.422 78.9297 141.516C78.3883 140.609 77.5094 139.953 76.4864 139.691ZM53.0069 133.562C51.9845 133.289 50.896 133.433 49.9795 133.962C49.0633 134.49 48.3938 135.36 48.1172 136.381C47.867 137.397 48.0249 138.472 48.5577 139.373C49.0905 140.274 49.9555 140.931 50.9668 141.201C51.9892 141.473 53.0777 141.329 53.9942 140.801C54.9105 140.272 55.58 139.402 55.8565 138.381C56.1065 137.364 55.9487 136.291 55.4161 135.39C54.8832 134.489 54.0181 133.832 53.0069 133.562Z" fill="#303030"/>
<path fill-rule="evenodd" clip-rule="evenodd" d="M9.62224 97.7329C12.2647 97.5966 14.8618 98.4558 16.9025 100.139C19.5726 102.299 20.1698 104.706 20.673 106.616C21.1163 108.298 21.4939 109.659 22.9689 111.111L23.2795 111.403L23.2863 111.409C25.1791 113.13 26.5957 113.337 28.2775 113.555C30.1823 113.802 32.5525 114.053 35.0842 116.534C37.006 118.37 38.1289 120.889 38.2092 123.547C38.2897 126.216 37.3123 128.809 35.4904 130.761L35.4885 130.763C33.6774 132.697 31.1955 133.868 28.551 134.034C25.9063 134.2 23.2976 133.349 21.259 131.656L21.2492 131.648C18.5557 129.382 18.0291 127.055 17.5695 125.18C17.1587 123.504 16.8012 122.128 14.9631 120.468L14.9611 120.467C13.4219 119.075 12.0661 118.855 10.1467 118.533C8.12821 118.193 5.6483 117.746 3.11247 115.272L3.10564 115.266L3.09978 115.259C1.22267 113.395 0.118326 110.89 0.0089594 108.247C-0.100304 105.603 0.793091 103.015 2.50994 101.002L2.55779 100.946L2.60955 100.893C4.46811 98.9977 6.97121 97.8696 9.62224 97.7329ZM27.9299 120.067C26.8704 120.114 25.8726 120.58 25.1564 121.362C24.4569 122.146 24.0943 123.174 24.1467 124.224C24.1991 125.274 24.6624 126.26 25.4367 126.971C26.2192 127.687 27.2541 128.063 28.3136 128.016C29.3731 127.969 30.3709 127.503 31.0871 126.721C31.7867 125.937 32.1492 124.909 32.0969 123.859C32.0444 122.809 31.5811 121.822 30.8068 121.112C30.0243 120.396 28.9894 120.02 27.9299 120.067ZM9.89958 103.796C8.84032 103.843 7.84323 104.309 7.12712 105.091C6.42735 105.876 6.06402 106.904 6.11638 107.954C6.16878 109.003 6.63201 109.991 7.40642 110.702C8.18889 111.417 9.22392 111.792 10.2834 111.746C11.3428 111.699 12.3406 111.234 13.0568 110.452C13.7565 109.667 14.1198 108.639 14.0676 107.589C14.0152 106.539 13.551 105.552 12.7765 104.841C11.9941 104.125 10.959 103.749 9.89958 103.796Z" fill="#303030"/>
<path fill-rule="evenodd" clip-rule="evenodd" d="M214.622 97.7326C217.107 97.8609 219.462 98.8609 221.278 100.547L221.635 100.893L221.686 100.946L221.735 101.003C223.451 103.018 224.341 105.607 224.229 108.25C224.118 110.893 223.012 113.397 221.134 115.26L221.127 115.266L221.121 115.272C218.585 117.746 216.105 118.193 214.087 118.532C212.168 118.855 210.811 119.075 209.272 120.467L209.271 120.468C207.433 122.127 207.076 123.504 206.665 125.18C206.205 127.055 205.678 129.382 202.985 131.648L202.975 131.655C200.936 133.348 198.328 134.199 195.684 134.033C193.039 133.867 190.557 132.697 188.746 130.763L188.742 130.76C186.922 128.806 185.947 126.212 186.03 123.543C186.113 120.886 187.238 118.368 189.16 116.533L189.396 116.307C191.839 114.036 194.122 113.794 195.967 113.555C197.648 113.337 199.065 113.129 200.958 111.408L200.965 111.402C202.7 109.84 203.098 108.41 203.571 106.615C204.059 104.765 204.634 102.449 207.097 100.342L207.341 100.139C209.381 98.4555 211.98 97.5963 214.622 97.7326ZM196.313 120.067C195.254 120.02 194.219 120.396 193.436 121.111C192.662 121.822 192.199 122.809 192.146 123.859C192.094 124.908 192.457 125.937 193.157 126.721C193.873 127.503 194.87 127.969 195.93 128.016C196.989 128.063 198.024 127.687 198.807 126.971C199.581 126.26 200.044 125.273 200.097 124.224C200.149 123.174 199.787 122.146 199.087 121.361C198.371 120.579 197.373 120.113 196.313 120.067ZM214.344 103.797C213.284 103.75 212.249 104.125 211.467 104.841C210.692 105.552 210.229 106.539 210.177 107.589C210.124 108.639 210.487 109.667 211.186 110.451C211.903 111.233 212.9 111.699 213.96 111.746C215.019 111.793 216.054 111.417 216.837 110.701C217.611 109.991 218.075 109.003 218.127 107.953C218.179 106.904 217.817 105.875 217.117 105.091C216.401 104.309 215.403 103.844 214.344 103.797Z" fill="#303030"/>
<path fill-rule="evenodd" clip-rule="evenodd" d="M171.492 129.844C174.063 129.295 176.746 129.723 179.018 131.048C181.165 132.301 182.796 134.268 183.632 136.598L183.788 137.068L183.812 137.144L183.829 137.222C184.415 139.804 184.004 142.513 182.68 144.806C181.356 147.099 179.215 148.808 176.686 149.591L176.674 149.595L176.663 149.598C173.284 150.605 170.884 149.863 168.94 149.24C167.092 148.649 165.776 148.222 163.752 148.748L163.751 148.747C161.375 149.374 160.418 150.433 159.267 151.737C157.983 153.19 156.429 155.005 152.996 155.766L152.988 155.768C150.402 156.331 147.698 155.884 145.431 154.519C143.163 153.154 141.503 150.973 140.79 148.424L140.788 148.418C140.075 145.841 140.412 143.085 141.723 140.754C143.032 138.428 145.206 136.712 147.773 135.981C149.378 135.489 150.757 135.413 152.027 135.591C153.248 135.762 154.308 136.168 155.134 136.469C156.626 137.013 157.919 137.465 160.137 136.984L160.593 136.874C162.852 136.284 163.867 135.192 165.121 133.811C166.456 132.342 168.107 130.484 171.492 129.844ZM152.474 142.442C151.557 141.913 150.469 141.769 149.446 142.041C148.431 142.312 147.563 142.972 147.029 143.877C146.496 144.783 146.341 145.862 146.597 146.881C146.873 147.902 147.543 148.772 148.459 149.301C149.376 149.829 150.464 149.973 151.487 149.701C152.502 149.431 153.371 148.771 153.904 147.865C154.438 146.96 154.593 145.881 154.337 144.862C154.061 143.84 153.39 142.97 152.474 142.442ZM175.985 136.301C175.068 135.773 173.979 135.63 172.957 135.902C171.942 136.172 171.073 136.831 170.539 137.737C170.006 138.642 169.85 139.722 170.107 140.741C170.383 141.763 171.054 142.633 171.97 143.161C172.886 143.69 173.975 143.833 174.997 143.561C176.013 143.29 176.881 142.631 177.414 141.726C177.948 140.82 178.103 139.74 177.847 138.721C177.57 137.7 176.901 136.829 175.985 136.301Z" fill="#303030"/>
</svg>
