<svg width="300" height="300" viewBox="0 0 300 300" fill="none" xmlns="http://www.w3.org/2000/svg">
<path d="M244.497 128.851C244.602 128.397 244.573 127.921 244.413 127.483C244.253 127.044 243.97 126.662 243.597 126.381L232.927 118.141C232.639 117.924 232.404 117.645 232.24 117.325C232.075 117.005 231.985 116.651 231.977 116.291C231.977 115.921 231.977 115.541 231.977 115.161C231.977 114.241 231.837 113.331 231.717 112.431C231.666 112.072 231.697 111.706 231.806 111.36C231.915 111.014 232.1 110.697 232.347 110.431L241.597 100.591C241.923 100.251 242.143 99.8222 242.228 99.3583C242.314 98.8943 242.261 98.4155 242.077 97.9812C241.327 96.2653 240.475 94.5957 239.527 92.9812C239.284 92.5768 238.929 92.2523 238.504 92.0479C238.079 91.8435 237.604 91.7682 237.137 91.8312L223.737 93.5512C223.374 93.5957 223.005 93.5577 222.659 93.4399C222.313 93.3222 221.997 93.1278 221.737 92.8712C220.789 91.9494 219.787 91.0846 218.737 90.2812C218.485 90.0954 218.278 89.8549 218.133 89.5777C217.987 89.3006 217.907 88.9941 217.897 88.6812L217.597 75.0012C217.588 74.5308 217.441 74.0734 217.174 73.6858C216.908 73.2982 216.533 72.9976 216.097 72.8212C214.347 72.1312 212.557 71.5468 210.737 71.0712C210.28 70.9576 209.799 70.9803 209.355 71.1367C208.911 71.2931 208.522 71.5763 208.237 71.9512L199.997 82.6212C199.779 82.9082 199.5 83.1426 199.18 83.307C198.86 83.4715 198.507 83.5618 198.147 83.5712H197.017C196.097 83.5712 195.187 83.7112 194.287 83.8312C193.927 83.8815 193.562 83.851 193.216 83.742C192.87 83.6331 192.552 83.4483 192.287 83.2012L182.497 73.9112C182.156 73.5846 181.728 73.365 181.264 73.2796C180.8 73.1943 180.321 73.247 179.887 73.4312C178.171 74.181 176.501 75.0325 174.887 75.9812C174.468 76.2145 174.128 76.5675 173.91 76.995C173.693 77.4225 173.608 77.9052 173.667 78.3812L175.387 91.7812C175.431 92.1443 175.393 92.5127 175.275 92.859C175.158 93.2053 174.963 93.5205 174.707 93.7812C173.785 94.7292 172.92 95.731 172.117 96.7812C171.931 97.0331 171.69 97.2396 171.413 97.3851C171.136 97.5306 170.83 97.6113 170.517 97.6212L156.837 97.9812C156.366 97.9901 155.909 98.137 155.521 98.4036C155.134 98.6703 154.833 99.0451 154.657 99.4812C153.967 101.231 153.382 103.021 152.907 104.841C152.793 105.298 152.816 105.779 152.972 106.223C153.129 106.667 153.412 107.056 153.787 107.341L164.457 115.581C164.744 115.799 164.978 116.078 165.142 116.398C165.307 116.718 165.397 117.071 165.407 117.431C165.407 117.801 165.407 118.181 165.407 118.561C165.407 119.481 165.547 120.391 165.667 121.291C165.717 121.65 165.686 122.016 165.577 122.362C165.469 122.708 165.284 123.026 165.037 123.291L155.747 133.081C155.42 133.422 155.2 133.85 155.115 134.314C155.03 134.778 155.082 135.257 155.267 135.691C156.016 137.407 156.868 139.077 157.817 140.691C158.059 141.096 158.414 141.42 158.839 141.625C159.264 141.829 159.74 141.904 160.207 141.841L173.597 140.181C173.96 140.137 174.328 140.175 174.674 140.293C175.021 140.41 175.336 140.605 175.597 140.861C176.515 141.746 177.483 142.577 178.497 143.351C178.793 143.566 179.037 143.844 179.21 144.166C179.383 144.489 179.481 144.846 179.497 145.211L179.847 158.721C179.856 159.192 180.002 159.649 180.269 160.037C180.536 160.424 180.911 160.725 181.347 160.901C183.097 161.591 184.887 162.176 186.707 162.651C187.164 162.765 187.644 162.742 188.089 162.586C188.533 162.429 188.922 162.146 189.207 161.771L197.447 151.101C197.664 150.814 197.943 150.58 198.263 150.415C198.584 150.251 198.937 150.161 199.297 150.151H200.427C201.347 150.151 202.257 150.011 203.157 149.891C203.516 149.841 203.882 149.871 204.228 149.98C204.574 150.089 204.891 150.274 205.157 150.521L214.947 159.811C215.287 160.138 215.716 160.358 216.18 160.443C216.644 160.528 217.122 160.475 217.557 160.291C219.273 159.542 220.942 158.69 222.557 157.741C222.965 157.508 223.297 157.16 223.51 156.741C223.723 156.321 223.809 155.849 223.757 155.381L222.037 141.991C221.992 141.628 222.03 141.26 222.148 140.913C222.266 140.567 222.46 140.252 222.717 139.991C223.601 139.073 224.433 138.105 225.207 137.091C225.421 136.795 225.7 136.551 226.022 136.378C226.344 136.204 226.701 136.107 227.067 136.091L240.597 135.711C241.067 135.702 241.525 135.556 241.912 135.289C242.3 135.022 242.6 134.647 242.777 134.211C243.457 132.461 244.031 130.671 244.497 128.851ZM192.787 133.271C189.453 132.061 186.553 129.89 184.453 127.032C182.353 124.174 181.147 120.758 180.988 117.215C180.828 113.673 181.722 110.162 183.557 107.127C185.392 104.092 188.085 101.669 191.296 100.164C194.507 98.659 198.092 98.1395 201.599 98.6711C205.105 99.2027 208.375 100.762 210.996 103.151C213.616 105.54 215.47 108.652 216.323 112.095C217.176 115.537 216.989 119.155 215.787 122.491C214.987 124.711 213.757 126.751 212.167 128.495C210.577 130.238 208.659 131.651 206.523 132.653C204.387 133.654 202.074 134.224 199.716 134.33C197.359 134.436 195.005 134.077 192.787 133.271Z" fill="#303030"/>
<path d="M128.387 116.271C128.352 115.932 128.219 115.61 128.004 115.346C127.789 115.081 127.502 114.885 127.177 114.781L117.877 111.781C117.631 111.706 117.405 111.578 117.215 111.405C117.024 111.232 116.875 111.019 116.777 110.781C116.657 110.515 116.553 110.255 116.467 110.001C116.207 109.381 115.927 108.781 115.597 108.201C115.481 107.961 115.421 107.698 115.421 107.431C115.421 107.165 115.481 106.901 115.597 106.661L119.527 97.6613C119.666 97.349 119.712 97.0025 119.657 96.6648C119.601 96.3271 119.449 96.013 119.217 95.7613C118.274 94.7686 117.272 93.8336 116.217 92.9613C115.952 92.7458 115.63 92.6129 115.29 92.5791C114.951 92.5453 114.609 92.6121 114.307 92.7713L105.597 97.2913C105.36 97.4049 105.1 97.4638 104.837 97.4638C104.574 97.4638 104.314 97.4049 104.077 97.2913C103.194 96.9045 102.289 96.5705 101.367 96.2913C101.144 96.2315 100.937 96.121 100.764 95.9684C100.59 95.8157 100.454 95.6251 100.367 95.4113L96.7568 86.1713C96.6353 85.8521 96.4227 85.5757 96.1453 85.3766C95.8679 85.1774 95.538 85.0643 95.1968 85.0513C93.8354 85.013 92.4729 85.0564 91.1168 85.1813C90.7734 85.2095 90.446 85.3384 90.1756 85.5519C89.9053 85.7653 89.7039 86.0539 89.5968 86.3813L86.5968 95.6813C86.5217 95.9271 86.3931 96.1533 86.2202 96.3435C86.0472 96.5337 85.8344 96.6832 85.5968 96.7813L84.8368 97.0813C84.2168 97.3413 83.6168 97.6213 83.0368 97.9313C82.802 98.0583 82.5415 98.1306 82.2748 98.1427C82.0081 98.1549 81.7421 98.1065 81.4968 98.0013L72.4968 94.0713C72.1844 93.9316 71.838 93.8864 71.5003 93.9415C71.1626 93.9966 70.8485 94.1495 70.5968 94.3813C69.6041 95.3242 68.6691 96.326 67.7968 97.3813C67.5813 97.6459 67.4484 97.9681 67.4146 98.3077C67.3808 98.6473 67.4476 98.9894 67.6068 99.2913L72.0768 108.001C72.1904 108.239 72.2493 108.498 72.2493 108.761C72.2493 109.024 72.1904 109.284 72.0768 109.521C71.6899 110.404 71.356 111.309 71.0768 112.231C71.017 112.454 70.9065 112.661 70.7539 112.834C70.6012 113.008 70.4106 113.144 70.1968 113.231L60.9568 116.841C60.6537 116.972 60.3941 117.186 60.2082 117.459C60.0223 117.732 59.9177 118.051 59.9068 118.381C59.8685 119.743 59.9119 121.105 60.0368 122.461C60.0714 122.801 60.2043 123.122 60.4193 123.387C60.6342 123.652 60.9218 123.848 61.2468 123.951L70.5468 126.951C70.7926 127.026 71.0187 127.155 71.2089 127.328C71.3991 127.501 71.5487 127.714 71.6468 127.951C71.7401 128.205 71.8401 128.458 71.9468 128.711C72.2068 129.331 72.4868 129.931 72.7968 130.511C72.9238 130.746 72.9961 131.007 73.0082 131.273C73.0204 131.54 72.972 131.806 72.8668 132.051L68.9368 141.051C68.797 141.364 68.7519 141.71 68.807 142.048C68.8621 142.385 69.015 142.7 69.2468 142.951C70.1897 143.944 71.1915 144.879 72.2468 145.751C72.5114 145.967 72.8336 146.1 73.1732 146.133C73.5128 146.167 73.8549 146.1 74.1568 145.941L82.8668 141.471C83.1056 141.357 83.367 141.297 83.6318 141.297C83.8966 141.297 84.158 141.357 84.3968 141.471C85.2403 141.854 86.1051 142.188 86.9868 142.471C87.2356 142.545 87.4651 142.673 87.6588 142.846C87.8524 143.019 88.0054 143.232 88.1068 143.471L91.6768 152.601C91.7982 152.92 92.0109 153.197 92.2883 153.396C92.5657 153.595 92.8955 153.708 93.2368 153.721C94.5981 153.76 95.9606 153.716 97.3168 153.591C97.656 153.557 97.9777 153.424 98.2425 153.209C98.5072 152.994 98.7033 152.706 98.8068 152.381L101.807 143.081C101.882 142.835 102.01 142.609 102.183 142.419C102.356 142.229 102.569 142.079 102.807 141.981L103.567 141.681C104.187 141.421 104.787 141.141 105.367 140.831C105.602 140.704 105.862 140.632 106.129 140.62C106.395 140.608 106.661 140.656 106.907 140.761L115.907 144.691C116.219 144.831 116.566 144.876 116.903 144.821C117.241 144.766 117.555 144.613 117.807 144.381C118.796 143.438 119.728 142.436 120.597 141.381C120.812 141.117 120.945 140.794 120.979 140.455C121.013 140.115 120.946 139.773 120.787 139.471L116.317 130.761C116.202 130.522 116.143 130.261 116.143 129.996C116.143 129.731 116.202 129.47 116.317 129.231C116.699 128.388 117.033 127.523 117.317 126.641C117.391 126.392 117.518 126.163 117.691 125.969C117.864 125.776 118.078 125.623 118.317 125.521L127.447 121.951C127.758 121.821 128.025 121.604 128.215 121.325C128.405 121.046 128.51 120.719 128.517 120.381C128.556 119.01 128.513 117.637 128.387 116.271ZM94.2068 132.011C91.6356 132.011 89.1222 131.249 86.9844 129.82C84.8465 128.392 83.1803 126.362 82.1963 123.986C81.2124 121.611 80.9549 118.997 81.4566 116.475C81.9582 113.953 83.1963 111.637 85.0144 109.819C86.8325 108.001 89.1488 106.763 91.6706 106.261C94.1923 105.759 96.8062 106.017 99.1816 107.001C101.557 107.985 103.587 109.651 105.016 111.789C106.444 113.927 107.207 116.44 107.207 119.011C107.207 122.459 105.837 125.766 103.399 128.204C100.961 130.642 97.6546 132.011 94.2068 132.011Z" fill="#303030"/>
<path d="M159.929 209.325C161.11 208.832 162.46 208.559 164.134 208.627C164.142 208.627 164.151 208.628 164.159 208.628C164.167 208.629 164.175 208.628 164.182 208.628L164.181 208.629C166.837 208.701 169.36 209.805 171.212 211.711C173.074 213.628 174.109 216.201 174.092 218.874V218.885C174.061 221.533 173.014 224.069 171.168 225.967C169.321 227.865 166.816 228.981 164.17 229.084H164.163C160.643 229.21 158.683 227.841 157.075 226.759C155.634 225.79 154.433 225.006 151.947 225.006C149.862 225.006 148.702 225.75 147.066 226.789C145.344 227.883 143.211 229.208 139.682 229.084H139.672L139.66 229.083C137.016 228.963 134.512 227.854 132.646 225.977C130.781 224.099 129.688 221.59 129.584 218.945L129.581 218.867L129.583 218.789C129.673 216.137 130.764 213.616 132.635 211.735C134.499 209.862 137 208.762 139.638 208.651V208.649C143.069 208.458 145.131 209.837 146.794 210.915C148.357 211.929 149.624 212.726 151.976 212.726C154.561 212.726 155.759 211.923 157.147 210.96C157.869 210.46 158.791 209.799 159.929 209.325ZM139.757 214.911C137.548 214.912 135.757 216.684 135.757 218.871C135.757 221.058 137.548 222.831 139.757 222.831C141.966 222.831 143.757 221.058 143.757 218.871C143.757 216.684 141.966 214.911 139.757 214.911ZM164.087 214.911C161.878 214.912 160.087 216.684 160.087 218.871C160.087 221.058 161.878 222.831 164.087 222.831C166.296 222.831 168.087 221.058 168.087 218.871C168.087 216.684 166.296 214.911 164.087 214.911Z" fill="#303030"/>
<path d="M84.9297 199.717C87.203 198.381 89.893 197.946 92.4707 198.494L92.4717 198.493C92.4845 198.496 92.497 198.5 92.5098 198.502C92.5165 198.503 92.5236 198.503 92.5303 198.505L92.5293 198.506C95.4568 199.075 97.0775 200.558 98.3262 201.898L99.3037 202.965C100.37 204.108 101.394 205.008 103.373 205.524H103.372C105.873 206.174 107.239 205.699 108.83 205.118C109.656 204.817 110.716 204.412 111.937 204.24C113.215 204.061 114.605 204.139 116.226 204.641L116.225 204.642C118.787 205.378 120.956 207.095 122.26 209.422C123.571 211.763 123.899 214.529 123.173 217.112C122.46 219.661 120.801 221.843 118.533 223.208C116.265 224.573 113.561 225.02 110.975 224.457L110.967 224.456C107.534 223.695 105.98 221.88 104.696 220.427C103.545 219.123 102.588 218.064 100.212 217.437V217.438C98.1881 216.911 96.8716 217.338 95.0234 217.93C93.0795 218.552 90.6797 219.294 87.2998 218.287L87.2783 218.281C84.7487 217.498 82.6075 215.788 81.2832 213.495C79.959 211.202 79.5491 208.494 80.1348 205.911L82.207 206.381L80.1728 205.767C80.9407 203.223 82.6392 201.063 84.9297 199.717ZM114.486 210.691C113.464 210.419 112.375 210.563 111.459 211.092C110.543 211.62 109.873 212.491 109.597 213.512C109.466 214.021 109.437 214.552 109.512 215.072C109.586 215.593 109.763 216.094 110.031 216.546C110.3 216.998 110.655 217.393 111.076 217.708C111.497 218.023 111.977 218.251 112.486 218.381C112.995 218.515 113.525 218.548 114.046 218.478C114.567 218.407 115.068 218.234 115.522 217.97C115.977 217.705 116.374 217.354 116.692 216.936C117.011 216.517 117.243 216.04 117.377 215.531C117.632 214.506 117.471 213.422 116.93 212.516C116.388 211.609 115.509 210.953 114.486 210.691ZM91.0068 204.562C89.9845 204.289 88.8959 204.433 87.9795 204.962C87.0632 205.49 86.3937 206.36 86.1172 207.381C85.867 208.397 86.0248 209.472 86.5576 210.373C87.0905 211.274 87.9555 211.931 88.9668 212.201C89.9891 212.473 91.0777 212.329 91.9941 211.801C92.9105 211.272 93.58 210.402 93.8564 209.381C94.1065 208.365 93.9487 207.291 93.416 206.39C92.8832 205.489 92.0181 204.832 91.0068 204.562Z" fill="#303030"/>
<path d="M47.6222 168.733C50.2647 168.597 52.8618 169.456 54.9025 171.139C57.5726 173.299 58.1698 175.706 58.673 177.616C59.1163 179.298 59.4939 180.659 60.9689 182.111L61.2795 182.403L61.2863 182.409C63.1791 184.13 64.5957 184.337 66.2775 184.555C68.1823 184.802 70.5525 185.053 73.0842 187.534H73.0832C75.005 189.37 76.1289 191.889 76.2092 194.547C76.2897 197.216 75.3123 199.809 73.4904 201.761L73.4885 201.763C71.6774 203.697 69.1955 204.868 66.551 205.034C63.9063 205.2 61.2976 204.349 59.259 202.656L59.2492 202.648C56.5557 200.382 56.0291 198.055 55.5695 196.18C55.1587 194.504 54.8012 193.128 52.9631 191.468L52.9611 191.467C51.4219 190.075 50.0661 189.855 48.1467 189.533C46.1282 189.193 43.6483 188.746 41.1125 186.272L41.1056 186.266L41.0998 186.259C39.2227 184.395 38.1183 181.89 38.009 179.247C37.8997 176.603 38.7931 174.015 40.5099 172.002L40.5578 171.946L40.6095 171.893C42.4681 169.998 44.9712 168.87 47.6222 168.733ZM65.9299 191.067C64.8704 191.114 63.8726 191.58 63.1564 192.362C62.4569 193.146 62.0943 194.174 62.1467 195.224C62.1991 196.274 62.6624 197.26 63.4367 197.971C64.2192 198.687 65.2541 199.063 66.3136 199.016C67.3731 198.969 68.3709 198.503 69.0871 197.721C69.7867 196.937 70.1492 195.909 70.0969 194.859C70.0444 193.809 69.5811 192.822 68.8068 192.112C68.0243 191.396 66.9894 191.02 65.9299 191.067ZM47.8996 174.796C46.8403 174.843 45.8432 175.309 45.1271 176.091C44.4274 176.876 44.064 177.904 44.1164 178.954C44.1688 180.003 44.632 180.991 45.4064 181.702C46.1889 182.417 47.2239 182.792 48.2834 182.746C49.3428 182.699 50.3406 182.234 51.0568 181.452C51.7565 180.667 52.1198 179.639 52.0676 178.589C52.0152 177.539 51.551 176.552 50.7765 175.841C49.9941 175.125 48.959 174.749 47.8996 174.796Z" fill="#303030"/>
<path d="M252.622 168.733C255.107 168.861 257.462 169.861 259.278 171.547L259.635 171.893L259.687 171.946L259.735 172.003C261.451 174.018 262.341 176.607 262.229 179.25C262.118 181.893 261.012 184.397 259.134 186.26L259.127 186.266L259.121 186.272C256.585 188.746 254.105 189.193 252.087 189.532C250.168 189.855 248.812 190.075 247.272 191.467L247.271 191.468C245.433 193.127 245.076 194.504 244.665 196.18C244.205 198.055 243.678 200.382 240.985 202.648L240.975 202.655C238.936 204.348 236.328 205.199 233.684 205.033C231.039 204.867 228.557 203.697 226.746 201.763L226.742 201.76C224.922 199.806 223.947 197.212 224.03 194.543C224.113 191.886 225.238 189.368 227.16 187.533L227.396 187.307C229.839 185.036 232.122 184.794 233.967 184.555C235.648 184.337 237.065 184.129 238.958 182.408L238.965 182.402C240.7 180.84 241.098 179.41 241.571 177.615C242.059 175.765 242.634 173.449 245.097 171.342L245.341 171.139C247.382 169.456 249.98 168.596 252.622 168.733ZM234.313 191.067C233.254 191.02 232.219 191.396 231.437 192.111C230.662 192.822 230.199 193.809 230.146 194.859C230.094 195.908 230.457 196.937 231.157 197.721C231.873 198.503 232.87 198.969 233.93 199.016C234.989 199.063 236.024 198.687 236.807 197.971C237.581 197.26 238.044 196.273 238.097 195.224C238.149 194.174 237.787 193.146 237.087 192.361C236.371 191.579 235.373 191.113 234.313 191.067ZM252.344 174.797C251.284 174.75 250.249 175.125 249.467 175.841C248.692 176.552 248.229 177.539 248.177 178.589C248.124 179.639 248.487 180.667 249.187 181.451C249.903 182.233 250.9 182.699 251.96 182.746C253.019 182.793 254.054 182.417 254.837 181.701C255.611 180.991 256.075 180.003 256.127 178.953C256.179 177.904 255.817 176.875 255.117 176.091C254.401 175.309 253.403 174.844 252.344 174.797Z" fill="#303030"/>
<path d="M209.492 200.844C212.063 200.295 214.746 200.723 217.018 202.048C219.164 203.301 220.796 205.268 221.632 207.598L221.788 208.068L221.812 208.144L221.829 208.222C222.415 210.804 222.004 213.513 220.68 215.806C219.356 218.099 217.215 219.808 214.686 220.591L214.674 220.595L214.663 220.598C211.283 221.605 208.883 220.863 206.94 220.24C205.092 219.649 203.776 219.221 201.752 219.748L201.751 219.747C199.375 220.374 198.418 221.433 197.267 222.737C195.983 224.19 194.429 226.005 190.996 226.766L190.988 226.768C188.402 227.331 185.698 226.884 183.431 225.519C181.163 224.154 179.503 221.973 178.79 219.424L178.788 219.418C178.075 216.841 178.412 214.085 179.723 211.754C181.032 209.428 183.206 207.712 185.773 206.981C187.378 206.488 188.757 206.413 190.026 206.591C191.248 206.762 192.308 207.167 193.134 207.469C194.626 208.013 195.919 208.465 198.137 207.984L198.593 207.874C200.852 207.284 201.866 206.192 203.121 204.811C204.456 203.342 206.107 201.483 209.492 200.843V200.844ZM190.474 213.442C189.557 212.913 188.469 212.769 187.446 213.041C186.431 213.312 185.563 213.972 185.029 214.877C184.496 215.783 184.341 216.862 184.597 217.881C184.873 218.902 185.543 219.772 186.459 220.301C187.375 220.829 188.464 220.973 189.486 220.701C190.502 220.431 191.371 219.771 191.904 218.865C192.438 217.96 192.593 216.881 192.337 215.862C192.061 214.84 191.39 213.97 190.474 213.442ZM213.984 207.301C213.068 206.772 211.979 206.629 210.957 206.902C209.942 207.172 209.073 207.831 208.539 208.737C208.006 209.642 207.85 210.722 208.107 211.741C208.383 212.762 209.053 213.633 209.97 214.161C210.886 214.69 211.975 214.833 212.997 214.561C214.013 214.29 214.881 213.631 215.414 212.726C215.948 211.82 216.103 210.74 215.847 209.721C215.57 208.7 214.901 207.829 213.984 207.301Z" fill="#303030"/>
</svg>
