<svg id="Layer_1" data-name="Layer 1" xmlns="http://www.w3.org/2000/svg" viewBox="0 0 514.55 176.18"><defs><style>.cls-1{fill:#303030;}</style></defs><title>clank</title><path class="cls-1" d="M139,46.56c0.43,0.85,0,1.27-.64,1.27h-1.93a1.17,1.17,0,0,1-1.28-.85C125.74,27.69,107.77,15.39,84,15.39c-38.1,0-63.56,29.68-63.56,73.15,0,42.83,25.25,73.36,61.85,73.36,25.9,0,45.8-13.36,55.43-38.38a1,1,0,0,1,1.07-.85h1.71c0.86,0,1.07.42,0.86,1.27-10.06,26.93-31.46,41.56-59.07,41.56-38.74,0-65.49-32.23-65.49-77C16.81,43,44.63,11.79,84,11.79,109.48,11.79,129,25.15,139,46.56Z"/><path class="cls-1" d="M173.47,163.38a1,1,0,0,1-1.07,1.06h-1.71a1,1,0,0,1-1.07-1.06l0.21-152.65a1,1,0,0,1,1.07-1.06h1.28a1,1,0,0,1,1.07,1.06Z"/><path class="cls-1" d="M283.26,87.9l0.21,75.48a1,1,0,0,1-1.07,1.06h-1.71a1,1,0,0,1-1.07-1.06V145.57l-0.86-.42c-7.92,11.87-22,20.35-41.09,20.35-19.48,0-34.24-8.91-34.24-29.26,0-27.14,27.61-32.44,73.62-34.35l2.57-.21v-14c0-16.75-9.63-29.9-31.25-29.9-17.33-.21-30.18,8.48-35.31,23.11a1,1,0,0,1-1.07.85h-1.5c-0.86,0-1.07-.42-0.86-1.06,5.14-15.9,18.83-26.5,39-26.5C271.7,54.19,283.26,67.55,283.26,87.9Zm-6,17.6c-43.66,1.91-70,6.57-70,30.53,0,17.81,12.84,25.87,30.61,25.87,21,0,36-11.66,41.73-23.75V105.5h-2.35Z"/><path class="cls-1" d="M391.34,88.33v75.06a1,1,0,0,1-1.07,1.06h-1.5a1,1,0,0,1-1.07-1.06V89c0-21.2-11.13-31.17-28.89-31.17-16.69,0-29.75,8.9-41.73,22.9v82.69a1,1,0,0,1-1.07,1.06h-1.5a1,1,0,0,1-1.07-1.06V56.31a1,1,0,0,1,1.07-1.06H316a1,1,0,0,1,1.07,1.06V74.76l1.07,0.42c9-10.18,21.83-21,41.09-21C378.93,54.19,391.34,65.22,391.34,88.33Z"/><path class="cls-1" d="M425.15,121.4v42a1,1,0,0,1-1.07,1.06h-1.71a1,1,0,0,1-1.07-1.06l0.21-152.65a1,1,0,0,1,1.07-1.06h1.28a1,1,0,0,1,1.07,1.06l0.21,106,66.56-61.06a3.12,3.12,0,0,1,1.5-.42h1.93c1.07,0,1.28.64,0.43,1.27l-44.3,40.92,48.58,65.73c0.43,0.64.21,1.27-.86,1.27h-2.35a1.3,1.3,0,0,1-1.28-.64L448.27,100Z"/></svg>