<svg width="761" height="162" viewBox="0 0 761 162" fill="none" xmlns="http://www.w3.org/2000/svg">
<path d="M206.497 58.6113C206.602 58.1566 206.573 57.6812 206.413 57.2427C206.253 56.8043 205.97 56.4216 205.597 56.1413L194.927 47.9012C194.639 47.6844 194.404 47.4053 194.24 47.085C194.075 46.7646 193.985 46.4113 193.977 46.0513C193.977 45.6813 193.977 45.3012 193.977 44.9212C193.977 44.0012 193.837 43.0912 193.717 42.1912C193.666 41.832 193.697 41.4661 193.806 41.1201C193.915 40.7742 194.1 40.4568 194.347 40.1912L203.597 30.3512C203.923 30.0109 204.143 29.5822 204.228 29.1183C204.314 28.6543 204.261 28.1755 204.077 27.7412C203.327 26.0253 202.475 24.3557 201.527 22.7412C201.285 22.3368 200.929 22.0123 200.504 21.8079C200.079 21.6035 199.604 21.5282 199.137 21.5913L185.737 23.3112C185.374 23.3557 185.005 23.3177 184.659 23.1999C184.313 23.0822 183.997 22.8878 183.737 22.6313C182.789 21.7094 181.787 20.8446 180.737 20.0412C180.485 19.8554 180.278 19.6149 180.133 19.3378C179.987 19.0606 179.907 18.7541 179.897 18.4412L179.597 4.76125C179.588 4.29085 179.441 3.83343 179.174 3.44584C178.908 3.05825 178.533 2.75759 178.097 2.58125C176.347 1.89117 174.557 1.30679 172.737 0.831249C172.28 0.717567 171.799 0.740333 171.355 0.896732C170.911 1.05313 170.522 1.3363 170.237 1.71125L161.997 12.3812C161.779 12.6682 161.5 12.9026 161.18 13.067C160.86 13.2315 160.507 13.3218 160.147 13.3312H159.017C158.097 13.3312 157.187 13.4712 156.287 13.5912C155.928 13.6415 155.562 13.611 155.216 13.502C154.87 13.3931 154.552 13.2083 154.287 12.9612L144.497 3.67125C144.156 3.34458 143.728 3.12497 143.264 3.03965C142.8 2.95433 142.321 3.00704 141.887 3.19125C140.171 3.94099 138.501 4.79251 136.887 5.74125C136.468 5.97449 136.128 6.32746 135.91 6.75501C135.693 7.18255 135.608 7.66522 135.667 8.14125L137.387 21.5413C137.431 21.9043 137.393 22.2727 137.275 22.619C137.158 22.9653 136.963 23.2806 136.707 23.5413C135.785 24.4892 134.92 25.491 134.117 26.5413C133.931 26.7931 133.69 26.9996 133.413 27.1451C133.136 27.2906 132.83 27.3713 132.517 27.3813L118.837 27.7412C118.366 27.7501 117.909 27.897 117.521 28.1637C117.134 28.4303 116.833 28.8051 116.657 29.2412C115.967 30.9913 115.382 32.7812 114.907 34.6012C114.793 35.0584 114.816 35.5388 114.972 35.9831C115.129 36.4274 115.412 36.8161 115.787 37.1012L126.457 45.3413C126.744 45.5586 126.978 45.8378 127.143 46.158C127.307 46.4782 127.397 46.8314 127.407 47.1912C127.407 47.5612 127.407 47.9413 127.407 48.3213C127.407 49.2413 127.547 50.1513 127.667 51.0513C127.717 51.4105 127.687 51.7764 127.578 52.1224C127.469 52.4683 127.284 52.7857 127.037 53.0513L117.747 62.8412C117.42 63.1816 117.2 63.6103 117.115 64.0742C117.03 64.5382 117.083 65.017 117.267 65.4512C118.017 67.1672 118.868 68.8368 119.817 70.4512C120.059 70.8557 120.415 71.1802 120.839 71.3846C121.264 71.589 121.74 71.6643 122.207 71.6012L135.597 69.9413C135.96 69.8968 136.328 69.9348 136.674 70.0526C137.021 70.1703 137.336 70.3647 137.597 70.6213C138.515 71.5058 139.483 72.3372 140.497 73.1113C140.793 73.3256 141.037 73.6043 141.21 73.9264C141.384 74.2486 141.481 74.6058 141.497 74.9713L141.847 88.4812C141.856 88.9516 142.002 89.4091 142.269 89.7967C142.536 90.1843 142.911 90.4849 143.347 90.6612C145.097 91.3513 146.887 91.9357 148.707 92.4112C149.164 92.5249 149.644 92.5022 150.089 92.3458C150.533 92.1894 150.922 91.9062 151.207 91.5312L159.447 80.8613C159.664 80.5743 159.943 80.3399 160.264 80.1755C160.584 80.011 160.937 79.9207 161.297 79.9112H162.427C163.347 79.9112 164.257 79.7713 165.157 79.6513C165.516 79.601 165.882 79.6315 166.228 79.7405C166.574 79.8494 166.891 80.0342 167.157 80.2812L176.947 89.5713C177.287 89.8979 177.716 90.1175 178.18 90.2029C178.644 90.2882 179.122 90.2355 179.557 90.0513C181.273 89.3016 182.942 88.4501 184.557 87.5013C184.965 87.2679 185.297 86.9202 185.51 86.5008C185.723 86.0814 185.809 85.6088 185.757 85.1413L184.037 71.7513C183.992 71.3882 184.03 71.0198 184.148 70.6735C184.266 70.3272 184.46 70.0119 184.717 69.7513C185.601 68.8328 186.433 67.8645 187.207 66.8512C187.421 66.5548 187.7 66.3109 188.022 66.1377C188.344 65.9645 188.701 65.8665 189.067 65.8512L202.597 65.4713C203.067 65.4624 203.525 65.3155 203.912 65.0488C204.3 64.7822 204.6 64.4074 204.777 63.9713C205.457 62.2206 206.031 60.4307 206.497 58.6113ZM154.787 63.0312C151.453 61.8209 148.553 59.6497 146.453 56.792C144.353 53.9343 143.147 50.5183 142.988 46.9755C142.828 43.4327 143.722 39.9221 145.557 36.8871C147.392 33.8522 150.085 31.4292 153.296 29.9241C156.507 28.4191 160.092 27.8995 163.599 28.4311C167.105 28.9627 170.375 30.5215 172.996 32.9108C175.617 35.3 177.47 38.4124 178.323 41.8547C179.176 45.2971 178.989 48.9149 177.787 52.2513C176.987 54.471 175.757 56.5111 174.167 58.2547C172.577 59.9984 170.66 61.4113 168.523 62.4127C166.387 63.414 164.074 63.9841 161.717 64.0902C159.359 64.1964 157.005 63.8365 154.787 63.0312Z" fill="#303030"/>
<path d="M90.3868 46.0313C90.3522 45.6921 90.2192 45.3703 90.0043 45.1056C89.7893 44.8409 89.5017 44.6448 89.1768 44.5413L79.8768 41.5413C79.6309 41.4662 79.4048 41.3376 79.2146 41.1647C79.0244 40.9918 78.8749 40.7789 78.7768 40.5413C78.6568 40.2746 78.5534 40.0146 78.4668 39.7613C78.2068 39.1413 77.9268 38.5413 77.5968 37.9613C77.4807 37.7212 77.4205 37.458 77.4205 37.1913C77.4205 36.9246 77.4807 36.6614 77.5968 36.4213L81.5268 27.4213C81.6665 27.109 81.7116 26.7625 81.6565 26.4248C81.6014 26.0871 81.4485 25.773 81.2168 25.5213C80.2738 24.5286 79.272 23.5936 78.2168 22.7213C77.9521 22.5058 77.6299 22.3729 77.2903 22.3391C76.9507 22.3053 76.6087 22.3722 76.3068 22.5313L67.5968 27.0513C67.3595 27.1649 67.0998 27.2238 66.8368 27.2238C66.5737 27.2238 66.314 27.1649 66.0768 27.0513C65.1941 26.6645 64.2891 26.3305 63.3668 26.0513C63.1436 25.9915 62.9372 25.881 62.7637 25.7284C62.5903 25.5757 62.4544 25.3851 62.3668 25.1713L58.7568 15.9313C58.6353 15.6121 58.4227 15.3357 58.1453 15.1366C57.8679 14.9374 57.538 14.8243 57.1968 14.8113C55.8354 14.773 54.4729 14.8165 53.1168 14.9413C52.7734 14.9695 52.446 15.0984 52.1756 15.3119C51.9052 15.5253 51.7039 15.8139 51.5968 16.1413L48.5968 25.4413C48.5217 25.6871 48.3931 25.9133 48.2201 26.1035C48.0472 26.2937 47.8343 26.4432 47.5968 26.5413L46.8368 26.8413C46.2168 27.1013 45.6168 27.3813 45.0368 27.6913C44.802 27.8183 44.5415 27.8906 44.2748 27.9028C44.0081 27.9149 43.7421 27.8665 43.4968 27.7613L34.4968 23.8313C34.1844 23.6916 33.838 23.6465 33.5003 23.7016C33.1626 23.7567 32.8485 23.9095 32.5968 24.1413C31.6041 25.0842 30.6691 26.086 29.7968 27.1413C29.5813 27.4059 29.4484 27.7281 29.4146 28.0677C29.3808 28.4073 29.4476 28.7494 29.6068 29.0513L34.0768 37.7613C34.1903 37.9985 34.2493 38.2582 34.2493 38.5213C34.2493 38.7843 34.1903 39.044 34.0768 39.2813C33.6899 40.164 33.356 41.0689 33.0768 41.9913C33.017 42.2145 32.9065 42.4209 32.7539 42.5943C32.6012 42.7678 32.4106 42.9036 32.1968 42.9913L22.9568 46.6013C22.6537 46.732 22.3941 46.9462 22.2082 47.2188C22.0222 47.4915 21.9177 47.8114 21.9068 48.1413C21.8685 49.5027 21.9119 50.8651 22.0368 52.2213C22.0713 52.5605 22.2043 52.8823 22.4193 53.147C22.6342 53.4117 22.9218 53.6078 23.2468 53.7113L32.5468 56.7113C32.7926 56.7864 33.0187 56.915 33.2089 57.0879C33.3991 57.2608 33.5487 57.4737 33.6468 57.7113C33.7401 57.9646 33.8401 58.218 33.9468 58.4713C34.2068 59.0913 34.4868 59.6913 34.7968 60.2713C34.9238 60.5061 34.9961 60.7666 35.0082 61.0333C35.0203 61.3 34.972 61.5659 34.8668 61.8113L30.9368 70.8113C30.797 71.1236 30.7519 71.4701 30.807 71.8077C30.8621 72.1454 31.015 72.4596 31.2468 72.7113C32.1897 73.704 33.1915 74.639 34.2468 75.5113C34.5114 75.7268 34.8336 75.8597 35.1732 75.8935C35.5128 75.9273 35.8548 75.8604 36.1568 75.7013L44.8668 71.2313C45.1055 71.1168 45.367 71.0574 45.6318 71.0574C45.8966 71.0574 46.158 71.1168 46.3968 71.2313C47.2403 71.6138 48.1051 71.9476 48.9868 72.2313C49.2356 72.3051 49.4651 72.433 49.6587 72.6059C49.8524 72.7788 50.0054 72.9923 50.1068 73.2313L53.6768 82.3613C53.7982 82.6805 54.0109 82.9568 54.2882 83.156C54.5656 83.3552 54.8955 83.4683 55.2368 83.4813C56.5981 83.5195 57.9606 83.4761 59.3168 83.3513C59.656 83.3167 59.9777 83.1838 60.2425 82.9688C60.5072 82.7538 60.7033 82.4662 60.8068 82.1413L63.8068 72.8413C63.8818 72.5955 64.0105 72.3693 64.1834 72.1791C64.3563 71.9889 64.5692 71.8394 64.8068 71.7413L65.5668 71.4413C66.1868 71.1813 66.7868 70.9013 67.3668 70.5913C67.6015 70.4642 67.862 70.3919 68.1287 70.3798C68.3954 70.3677 68.6614 70.4161 68.9068 70.5213L77.9068 74.4513C78.2191 74.591 78.5655 74.6361 78.9032 74.581C79.2409 74.5259 79.555 74.373 79.8068 74.1413C80.796 73.1981 81.7277 72.1963 82.5968 71.1413C82.8123 70.8766 82.9452 70.5545 82.9789 70.2149C83.0127 69.8752 82.9459 69.5332 82.7868 69.2313L78.3168 60.5213C78.2023 60.2825 78.1429 60.0211 78.1429 59.7563C78.1429 59.4915 78.2023 59.2301 78.3168 58.9913C78.6992 58.1477 79.0331 57.283 79.3168 56.4013C79.3905 56.1524 79.5184 55.9229 79.6913 55.7293C79.8642 55.5357 80.0778 55.3827 80.3168 55.2813L89.4468 51.7113C89.7581 51.5815 90.025 51.364 90.215 51.0852C90.4049 50.8065 90.5098 50.4785 90.5168 50.1413C90.5562 48.7699 90.5128 47.3974 90.3868 46.0313ZM56.2068 61.7713C53.6356 61.7713 51.1222 61.0089 48.9843 59.5804C46.8465 58.1519 45.1803 56.1216 44.1963 53.7462C43.2124 51.3707 42.9549 48.7569 43.4566 46.2351C43.9582 43.7134 45.1963 41.397 47.0144 39.5789C48.8325 37.7608 51.1488 36.5227 53.6706 36.0211C56.1923 35.5195 58.8062 35.7769 61.1816 36.7609C63.5571 37.7448 65.5874 39.411 67.0159 41.5489C68.4443 43.6867 69.2068 46.2001 69.2068 48.7713C69.2068 52.2191 67.8371 55.5257 65.3991 57.9637C62.9612 60.4017 59.6546 61.7713 56.2068 61.7713Z" fill="#303030"/>
<path fill-rule="evenodd" clip-rule="evenodd" d="M121.929 139.085C123.11 138.592 124.46 138.319 126.133 138.387C126.142 138.387 126.151 138.388 126.159 138.388C126.166 138.389 126.175 138.388 126.182 138.388L126.181 138.389C128.836 138.461 131.36 139.565 133.212 141.471C135.074 143.388 136.109 145.961 136.091 148.634V148.645C136.061 151.293 135.014 153.829 133.168 155.727C131.321 157.625 128.816 158.741 126.17 158.844H126.163C122.643 158.97 120.683 157.601 119.075 156.519C117.634 155.55 116.433 154.766 113.947 154.766C111.862 154.766 110.702 155.51 109.066 156.549C107.344 157.643 105.211 158.968 101.682 158.844H101.672L101.66 158.843C99.0155 158.723 96.5122 157.614 94.6462 155.737C92.7805 153.859 91.6877 151.35 91.5837 148.705L91.5807 148.627L91.5827 148.549C91.6726 145.897 92.7635 143.376 94.6354 141.495C96.499 139.622 98.9997 138.522 101.638 138.411V138.409C105.069 138.218 107.131 139.597 108.794 140.675C110.357 141.689 111.624 142.486 113.976 142.486C116.561 142.486 117.758 141.683 119.147 140.72C119.869 140.22 120.791 139.559 121.929 139.085ZM101.757 144.671C99.5475 144.672 97.7565 146.444 97.7565 148.631C97.7566 150.818 99.5476 152.591 101.757 152.591C103.966 152.591 105.756 150.818 105.757 148.631C105.757 146.444 103.966 144.671 101.757 144.671ZM126.087 144.671C123.878 144.672 122.087 146.444 122.087 148.631C122.087 150.818 123.878 152.591 126.087 152.591C128.296 152.591 130.087 150.818 130.087 148.631C130.087 146.444 128.296 144.671 126.087 144.671Z" fill="#303030"/>
<path fill-rule="evenodd" clip-rule="evenodd" d="M46.9297 129.477C49.203 128.141 51.8931 127.706 54.4707 128.254L54.4717 128.253C54.4845 128.256 54.4971 128.259 54.5098 128.262C54.5165 128.263 54.5236 128.263 54.5303 128.265L54.5293 128.266C57.4569 128.835 59.0776 130.318 60.3262 131.658L61.3037 132.725C62.3699 133.868 63.3941 134.768 65.3731 135.284C67.8744 135.933 69.239 135.459 70.8301 134.878C71.6562 134.577 72.7157 134.172 73.9366 134C75.2154 133.821 76.6049 133.899 78.2256 134.401L78.2246 134.402C80.7866 135.138 82.956 136.855 84.2598 139.182C85.5715 141.523 85.8993 144.289 85.1729 146.872C84.4603 149.421 82.8007 151.603 80.5332 152.968C78.2655 154.333 75.5611 154.78 72.9746 154.217L72.9668 154.216C69.5342 153.455 67.98 151.64 66.6963 150.187C65.5451 148.883 64.5885 147.824 62.212 147.197C60.1881 146.67 58.8717 147.098 57.0235 147.69C55.0795 148.312 52.6798 149.054 49.2998 148.047L49.2784 148.041C46.7488 147.258 44.6076 145.548 43.2832 143.255C41.9591 140.962 41.5492 138.254 42.1348 135.671L44.2071 136.141L42.1729 135.527C42.9407 132.983 44.6392 130.823 46.9297 129.477ZM76.4864 140.451C75.4641 140.179 74.3754 140.323 73.459 140.852C72.5428 141.38 71.8732 142.251 71.5967 143.272C71.4662 143.781 71.4372 144.312 71.5118 144.832C71.5864 145.353 71.7629 145.854 72.0313 146.306C72.2997 146.758 72.655 147.153 73.0762 147.468C73.4974 147.783 73.9767 148.011 74.4864 148.141C74.9946 148.275 75.525 148.308 76.0459 148.238C76.5667 148.167 77.0685 147.994 77.5225 147.73C77.9765 147.465 78.3743 147.114 78.6924 146.696C79.0106 146.277 79.2433 145.8 79.377 145.291C79.6317 144.266 79.471 143.182 78.9297 142.276C78.3883 141.369 77.5094 140.713 76.4864 140.451ZM53.0069 134.322C51.9845 134.049 50.896 134.193 49.9795 134.722C49.0633 135.25 48.3938 136.12 48.1172 137.141C47.867 138.157 48.0249 139.232 48.5577 140.133C49.0905 141.034 49.9555 141.691 50.9668 141.961C51.9892 142.233 53.0777 142.089 53.9942 141.561C54.9105 141.032 55.58 140.162 55.8565 139.141C56.1065 138.124 55.9487 137.051 55.4161 136.15C54.8832 135.249 54.0181 134.592 53.0069 134.322Z" fill="#303030"/>
<path fill-rule="evenodd" clip-rule="evenodd" d="M9.62224 98.4929C12.2647 98.3566 14.8618 99.2158 16.9025 100.899C19.5726 103.059 20.1698 105.466 20.673 107.376C21.1163 109.058 21.4939 110.419 22.9689 111.871L23.2795 112.163L23.2863 112.169C25.1791 113.89 26.5957 114.097 28.2775 114.315C30.1823 114.562 32.5525 114.813 35.0842 117.294C37.006 119.13 38.1289 121.649 38.2092 124.307C38.2897 126.976 37.3123 129.569 35.4904 131.521L35.4885 131.523C33.6774 133.457 31.1955 134.628 28.551 134.794C25.9063 134.96 23.2976 134.109 21.259 132.416L21.2492 132.408C18.5557 130.142 18.0291 127.815 17.5695 125.94C17.1587 124.264 16.8012 122.888 14.9631 121.228L14.9611 121.227C13.4219 119.835 12.0661 119.615 10.1467 119.293C8.12821 118.953 5.6483 118.506 3.11247 116.032L3.10564 116.026L3.09978 116.019C1.22267 114.155 0.118326 111.65 0.0089594 109.007C-0.100304 106.363 0.793091 103.775 2.50994 101.762L2.55779 101.706L2.60955 101.653C4.46811 99.7577 6.97121 98.6296 9.62224 98.4929ZM27.9299 120.827C26.8704 120.874 25.8726 121.34 25.1564 122.122C24.4569 122.906 24.0943 123.934 24.1467 124.984C24.1991 126.034 24.6624 127.021 25.4367 127.731C26.2192 128.447 27.2541 128.823 28.3136 128.776C29.3731 128.729 30.3709 128.263 31.0871 127.481C31.7867 126.697 32.1492 125.669 32.0969 124.619C32.0444 123.569 31.5811 122.582 30.8068 121.872C30.0243 121.156 28.9894 120.78 27.9299 120.827ZM9.89958 104.556C8.84032 104.603 7.84323 105.069 7.12712 105.851C6.42735 106.636 6.06402 107.664 6.11638 108.714C6.16878 109.763 6.63201 110.751 7.40642 111.462C8.18889 112.177 9.22392 112.552 10.2834 112.506C11.3428 112.459 12.3406 111.994 13.0568 111.212C13.7565 110.427 14.1198 109.399 14.0676 108.349C14.0152 107.299 13.551 106.312 12.7765 105.601C11.9941 104.886 10.959 104.509 9.89958 104.556Z" fill="#303030"/>
<path fill-rule="evenodd" clip-rule="evenodd" d="M214.622 98.4926C217.107 98.6209 219.462 99.6209 221.278 101.307L221.635 101.653L221.686 101.706L221.735 101.763C223.451 103.778 224.341 106.367 224.229 109.01C224.118 111.653 223.012 114.157 221.134 116.02L221.127 116.026L221.121 116.032C218.585 118.506 216.105 118.953 214.087 119.292C212.168 119.615 210.811 119.835 209.272 121.227L209.271 121.228C207.433 122.887 207.076 124.264 206.665 125.94C206.205 127.815 205.678 130.142 202.985 132.408L202.975 132.415C200.936 134.108 198.328 134.959 195.684 134.793C193.039 134.627 190.557 133.457 188.746 131.523L188.742 131.52C186.922 129.566 185.947 126.972 186.03 124.303C186.113 121.646 187.238 119.128 189.16 117.293L189.396 117.067C191.839 114.796 194.122 114.554 195.967 114.315C197.648 114.097 199.065 113.889 200.958 112.168L200.965 112.162C202.7 110.6 203.098 109.17 203.571 107.375C204.059 105.525 204.634 103.209 207.097 101.102L207.341 100.899C209.381 99.2155 211.98 98.3563 214.622 98.4926ZM196.313 120.827C195.254 120.78 194.219 121.156 193.436 121.871C192.662 122.582 192.199 123.569 192.146 124.619C192.094 125.668 192.457 126.697 193.157 127.481C193.873 128.263 194.87 128.729 195.93 128.776C196.989 128.823 198.024 128.447 198.807 127.731C199.581 127.02 200.044 126.034 200.097 124.984C200.149 123.934 199.787 122.906 199.087 122.121C198.371 121.339 197.373 120.873 196.313 120.827ZM214.344 104.557C213.284 104.51 212.249 104.885 211.467 105.601C210.692 106.312 210.229 107.299 210.177 108.349C210.124 109.399 210.487 110.427 211.186 111.211C211.903 111.993 212.9 112.459 213.96 112.506C215.019 112.553 216.054 112.177 216.837 111.461C217.611 110.751 218.075 109.763 218.127 108.713C218.179 107.664 217.817 106.635 217.117 105.851C216.401 105.069 215.403 104.604 214.344 104.557Z" fill="#303030"/>
<path fill-rule="evenodd" clip-rule="evenodd" d="M171.492 130.604C174.063 130.055 176.746 130.483 179.018 131.808C181.165 133.061 182.796 135.028 183.632 137.358L183.788 137.828L183.812 137.904L183.829 137.982C184.415 140.564 184.004 143.273 182.68 145.566C181.356 147.859 179.215 149.568 176.686 150.351L176.674 150.355L176.663 150.358C173.284 151.365 170.884 150.623 168.94 150C167.092 149.409 165.776 148.982 163.752 149.508L163.751 149.507C161.375 150.134 160.418 151.193 159.267 152.497C157.983 153.95 156.429 155.765 152.996 156.526L152.988 156.528C150.402 157.091 147.698 156.644 145.431 155.279C143.163 153.914 141.503 151.733 140.79 149.184L140.788 149.178C140.075 146.601 140.412 143.845 141.723 141.514C143.032 139.188 145.206 137.472 147.773 136.741C149.378 136.249 150.757 136.173 152.027 136.351C153.248 136.522 154.308 136.928 155.134 137.229C156.626 137.773 157.919 138.225 160.137 137.744L160.593 137.634C162.852 137.044 163.867 135.952 165.121 134.571C166.456 133.102 168.107 131.244 171.492 130.604ZM152.474 143.202C151.557 142.673 150.469 142.529 149.446 142.801C148.431 143.072 147.563 143.732 147.029 144.637C146.496 145.543 146.341 146.622 146.597 147.641C146.873 148.662 147.543 149.532 148.459 150.061C149.376 150.589 150.464 150.733 151.487 150.461C152.502 150.191 153.371 149.531 153.904 148.625C154.438 147.72 154.593 146.641 154.337 145.622C154.061 144.6 153.39 143.73 152.474 143.202ZM175.985 137.061C175.068 136.533 173.979 136.39 172.957 136.662C171.942 136.932 171.073 137.591 170.539 138.497C170.006 139.402 169.85 140.482 170.107 141.501C170.383 142.523 171.054 143.393 171.97 143.921C172.886 144.45 173.975 144.593 174.997 144.321C176.013 144.05 176.881 143.391 177.414 142.486C177.948 141.58 178.103 140.5 177.847 139.481C177.57 138.46 176.901 137.589 175.985 137.061Z" fill="#303030"/>
<path d="M381.926 131.45C374.786 141.11 366.526 148.04 357.146 152.24C347.766 156.44 337.616 158.54 326.696 158.54C315.356 158.54 304.926 156.65 295.406 152.87C286.026 148.95 277.976 143.56 271.256 136.7C264.536 129.7 259.286 121.44 255.506 111.92C251.726 102.26 249.836 91.76 249.836 80.42C249.836 69.08 251.726 58.65 255.506 49.13C259.286 39.61 264.536 31.42 271.256 24.56C277.976 17.56 286.026 12.1 295.406 8.18001C304.926 4.26001 315.356 2.30001 326.696 2.30001C336.776 2.30001 346.156 4.12 354.836 7.76C363.656 11.26 371.356 17.21 377.936 25.61L366.596 35.06C361.976 28.06 356.026 22.95 348.746 19.73C341.606 16.51 334.256 14.9 326.696 14.9C317.036 14.9 308.286 16.58 300.446 19.94C292.746 23.3 286.166 27.92 280.706 33.8C275.246 39.68 271.046 46.61 268.106 54.59C265.166 62.57 263.696 71.18 263.696 80.42C263.696 89.66 265.166 98.27 268.106 106.25C271.046 114.23 275.246 121.16 280.706 127.04C286.166 132.92 292.746 137.54 300.446 140.9C308.286 144.26 317.036 145.94 326.696 145.94C330.476 145.94 334.396 145.52 338.456 144.68C342.516 143.7 346.436 142.3 350.216 140.48C354.136 138.52 357.846 136.14 361.346 133.34C364.846 130.4 367.926 126.9 370.586 122.84L381.926 131.45Z" fill="#303030"/>
<path d="M408.026 0H420.626V158.76H408.026V0Z" fill="#303030"/>
<path d="M531.765 118.02C531.765 122.78 531.765 127.05 531.765 130.83C531.905 134.61 532.045 138.11 532.185 141.33C532.325 144.55 532.465 147.56 532.605 150.36C532.885 153.16 533.235 155.96 533.655 158.76H521.895C521.055 154 520.635 148.75 520.635 143.01H520.215C516.575 149.31 512.025 153.93 506.565 156.87C501.245 159.81 494.455 161.28 486.195 161.28C481.995 161.28 477.865 160.72 473.805 159.6C469.745 158.62 466.105 157.01 462.885 154.77C459.665 152.39 457.005 149.38 454.905 145.74C452.945 142.1 451.965 137.69 451.965 132.51C451.965 125.09 453.855 119.21 457.635 114.87C461.415 110.53 466.035 107.31 471.495 105.21C477.095 102.97 482.975 101.57 489.135 101.01C495.435 100.31 500.965 99.96 505.725 99.96H520.425V94.08C520.425 85.68 517.835 79.66 512.655 76.02C507.475 72.38 500.965 70.56 493.125 70.56C481.925 70.56 472.055 74.2 463.515 81.48L456.165 72.87C460.785 68.39 466.525 65.03 473.385 62.79C480.245 60.41 486.825 59.22 493.125 59.22C504.885 59.22 514.265 62.02 521.265 67.62C528.265 73.08 531.765 81.97 531.765 94.29V118.02ZM506.565 110.04C501.245 110.04 496.065 110.39 491.025 111.09C486.125 111.79 481.645 112.98 477.585 114.66C473.665 116.34 470.515 118.58 468.135 121.38C465.755 124.18 464.565 127.68 464.565 131.88C464.565 134.82 465.195 137.48 466.455 139.86C467.855 142.1 469.605 143.99 471.705 145.53C473.805 146.93 476.115 148.05 478.635 148.89C481.295 149.59 483.955 149.94 486.615 149.94C493.335 149.94 498.865 148.96 503.205 147C507.545 145.04 510.975 142.52 513.495 139.44C516.155 136.22 517.975 132.65 518.955 128.73C519.935 124.67 520.425 120.61 520.425 116.55V110.04H506.565Z" fill="#303030"/>
<path d="M565.272 89.04C565.272 87.22 565.202 85.05 565.062 82.53C564.922 79.87 564.782 77.21 564.642 74.55C564.642 71.89 564.572 69.44 564.432 67.2C564.292 64.82 564.222 63 564.222 61.74H576.822C576.962 65.38 577.032 68.88 577.032 72.24C577.172 75.6 577.382 77.77 577.662 78.75H578.292C580.812 73.43 585.012 68.88 590.892 65.1C596.772 61.18 603.632 59.22 611.472 59.22C619.032 59.22 625.192 60.41 629.952 62.79C634.712 65.17 638.422 68.32 641.082 72.24C643.882 76.02 645.772 80.43 646.752 85.47C647.872 90.51 648.432 95.69 648.432 101.01V158.76H635.832V101.64C635.832 97.72 635.482 93.94 634.782 90.3C634.082 86.52 632.822 83.16 631.002 80.22C629.322 77.28 626.872 74.97 623.652 73.29C620.572 71.47 616.512 70.56 611.472 70.56C606.852 70.56 602.442 71.4 598.242 73.08C594.182 74.62 590.612 77.07 587.532 80.43C584.592 83.65 582.212 87.78 580.392 92.82C578.712 97.72 577.872 103.53 577.872 110.25V158.76H565.272V89.04Z" fill="#303030"/>
<path d="M693.77 158.76H680.75V12.6L693.77 10.5V102.9L741.02 54.18L749.21 61.95L717.29 94.71L760.97 158.76H745.22L708.89 103.32L693.77 118.86V158.76Z" fill="#303030"/>
</svg>
