<svg width="512" height="162" viewBox="0 0 512 162" fill="none" xmlns="http://www.w3.org/2000/svg">
<path d="M132.09 131.45C124.95 141.11 116.69 148.04 107.31 152.24C97.93 156.44 87.78 158.54 76.86 158.54C65.52 158.54 55.09 156.65 45.57 152.87C36.19 148.95 28.14 143.56 21.42 136.7C14.7 129.7 9.45 121.44 5.67 111.92C1.89 102.26 0 91.76 0 80.42C0 69.08 1.89 58.65 5.67 49.13C9.45 39.61 14.7 31.42 21.42 24.56C28.14 17.56 36.19 12.1 45.57 8.18001C55.09 4.26001 65.52 2.30001 76.86 2.30001C86.94 2.30001 96.32 4.12 105 7.76C113.82 11.26 121.52 17.21 128.1 25.61L116.76 35.06C112.14 28.06 106.19 22.95 98.91 19.73C91.77 16.51 84.42 14.9 76.86 14.9C67.2 14.9 58.45 16.58 50.61 19.94C42.91 23.3 36.33 27.92 30.87 33.8C25.41 39.68 21.21 46.61 18.27 54.59C15.33 62.57 13.86 71.18 13.86 80.42C13.86 89.66 15.33 98.27 18.27 106.25C21.21 114.23 25.41 121.16 30.87 127.04C36.33 132.92 42.91 137.54 50.61 140.9C58.45 144.26 67.2 145.94 76.86 145.94C80.64 145.94 84.56 145.52 88.62 144.68C92.68 143.7 96.6 142.3 100.38 140.48C104.3 138.52 108.01 136.14 111.51 133.34C115.01 130.4 118.09 126.9 120.75 122.84L132.09 131.45Z" fill="#303030"/>
<path d="M158.19 0H170.79V158.76H158.19V0Z" fill="#303030"/>
<path d="M281.929 118.02C281.929 122.78 281.929 127.05 281.929 130.83C282.069 134.61 282.209 138.11 282.349 141.33C282.489 144.55 282.629 147.56 282.769 150.36C283.049 153.16 283.399 155.96 283.819 158.76H272.059C271.219 154 270.799 148.75 270.799 143.01H270.379C266.739 149.31 262.189 153.93 256.729 156.87C251.409 159.81 244.619 161.28 236.359 161.28C232.159 161.28 228.029 160.72 223.969 159.6C219.909 158.62 216.269 157.01 213.049 154.77C209.829 152.39 207.169 149.38 205.069 145.74C203.109 142.1 202.129 137.69 202.129 132.51C202.129 125.09 204.019 119.21 207.799 114.87C211.579 110.53 216.199 107.31 221.659 105.21C227.259 102.97 233.139 101.57 239.299 101.01C245.599 100.31 251.129 99.96 255.889 99.96H270.589V94.08C270.589 85.68 267.999 79.66 262.819 76.02C257.639 72.38 251.129 70.56 243.289 70.56C232.089 70.56 222.219 74.2 213.679 81.48L206.329 72.87C210.949 68.39 216.689 65.03 223.549 62.79C230.409 60.41 236.989 59.22 243.289 59.22C255.049 59.22 264.429 62.02 271.429 67.62C278.429 73.08 281.929 81.97 281.929 94.29V118.02ZM256.729 110.04C251.409 110.04 246.229 110.39 241.189 111.09C236.289 111.79 231.809 112.98 227.749 114.66C223.829 116.34 220.679 118.58 218.299 121.38C215.919 124.18 214.729 127.68 214.729 131.88C214.729 134.82 215.359 137.48 216.619 139.86C218.019 142.1 219.769 143.99 221.869 145.53C223.969 146.93 226.279 148.05 228.799 148.89C231.459 149.59 234.119 149.94 236.779 149.94C243.499 149.94 249.029 148.96 253.369 147C257.709 145.04 261.139 142.52 263.659 139.44C266.319 136.22 268.139 132.65 269.119 128.73C270.099 124.67 270.589 120.61 270.589 116.55V110.04H256.729Z" fill="#303030"/>
<path d="M315.436 89.04C315.436 87.22 315.366 85.05 315.226 82.53C315.086 79.87 314.946 77.21 314.806 74.55C314.806 71.89 314.736 69.44 314.596 67.2C314.456 64.82 314.386 63 314.386 61.74H326.986C327.126 65.38 327.196 68.88 327.196 72.24C327.336 75.6 327.546 77.77 327.826 78.75H328.456C330.976 73.43 335.176 68.88 341.056 65.1C346.936 61.18 353.796 59.22 361.636 59.22C369.196 59.22 375.356 60.41 380.116 62.79C384.876 65.17 388.586 68.32 391.246 72.24C394.046 76.02 395.936 80.43 396.916 85.47C398.036 90.51 398.596 95.69 398.596 101.01V158.76H385.996V101.64C385.996 97.72 385.646 93.94 384.946 90.3C384.246 86.52 382.986 83.16 381.166 80.22C379.486 77.28 377.036 74.97 373.816 73.29C370.736 71.47 366.676 70.56 361.636 70.56C357.016 70.56 352.606 71.4 348.406 73.08C344.346 74.62 340.776 77.07 337.696 80.43C334.756 83.65 332.376 87.78 330.556 92.82C328.876 97.72 328.036 103.53 328.036 110.25V158.76H315.436V89.04Z" fill="#303030"/>
<path d="M443.934 158.76H430.914V12.6L443.934 10.5V102.9L491.184 54.18L499.374 61.95L467.454 94.71L511.134 158.76H495.384L459.054 103.32L443.934 118.86V158.76Z" fill="#303030"/>
</svg>
