<svg id="Layer_1" data-name="Layer 1" xmlns="http://www.w3.org/2000/svg" viewBox="0 0 755.64 293.62"><defs><style>.cls-1{fill:#61d2dc;}.cls-2{fill:#303030;}.cls-3{fill:#252525;stroke:#000;}.cls-3,.cls-4,.cls-5,.cls-6{stroke-miterlimit:10;}.cls-3,.cls-5{stroke-width:2px;}.cls-4,.cls-5,.cls-6{fill:none;}.cls-4,.cls-5{stroke:#303030;}.cls-4{stroke-width:2.25px;}.cls-6{stroke:#60638c;}</style></defs><title>clank_Icon</title><circle class="cls-1" cx="517.53" cy="219.72"/><text x="-11.39" y="-42.65"/><text x="-11.39" y="-42.65"/><path class="cls-2" d="M406,79.54c0.43,0.85,0,1.27-.64,1.27h-1.93a1.17,1.17,0,0,1-1.28-.85c-9.42-19.29-27.4-31.59-51.15-31.59-38.1,0-63.56,29.68-63.56,73.15,0,42.83,25.25,73.36,61.85,73.36,25.9,0,45.8-13.36,55.43-38.38a1,1,0,0,1,1.07-.85h1.71c0.86,0,1.07.42,0.86,1.27-10.06,26.93-31.46,41.56-59.07,41.56-38.74,0-65.49-32.23-65.49-77,0-45.58,27.82-76.75,67.2-76.75C376.45,44.77,395.93,58.13,406,79.54Z" transform="translate(-11.39 -42.65)"/><path class="cls-2" d="M440.44,196.37a1,1,0,0,1-1.07,1.06h-1.71a1,1,0,0,1-1.07-1.06L436.8,43.71a1,1,0,0,1,1.07-1.06h1.28a1,1,0,0,1,1.07,1.06Z" transform="translate(-11.39 -42.65)"/><path class="cls-2" d="M550.24,120.89l0.21,75.48a1,1,0,0,1-1.07,1.06h-1.71a1,1,0,0,1-1.07-1.06V178.56l-0.86-.42c-7.92,11.87-22,20.35-41.09,20.35-19.48,0-34.24-8.91-34.24-29.26,0-27.14,27.61-32.44,73.62-34.35l2.57-.21v-14c0-16.75-9.63-29.9-31.25-29.9C498,90.57,485.17,99.26,480,113.89a1,1,0,0,1-1.07.85h-1.5c-0.86,0-1.07-.42-0.86-1.06,5.14-15.9,18.83-26.5,39-26.5C538.68,87.18,550.24,100.53,550.24,120.89Zm-6,17.6c-43.66,1.91-70,6.57-70,30.53,0,17.81,12.84,25.87,30.61,25.87,21,0,36-11.66,41.73-23.75V138.48h-2.35Z" transform="translate(-11.39 -42.65)"/><path class="cls-2" d="M658.31,121.31v75.06a1,1,0,0,1-1.07,1.06h-1.5a1,1,0,0,1-1.07-1.06V121.95c0-21.2-11.13-31.17-28.89-31.17-16.69,0-29.75,8.9-41.73,22.9v82.69a1,1,0,0,1-1.07,1.06h-1.5a1,1,0,0,1-1.07-1.06V89.3a1,1,0,0,1,1.07-1.06H583A1,1,0,0,1,584,89.3v18.45l1.07,0.42c9-10.18,21.83-21,41.09-21C645.9,87.18,658.31,98.2,658.31,121.31Z" transform="translate(-11.39 -42.65)"/><path class="cls-2" d="M692.13,154.39v42a1,1,0,0,1-1.07,1.06h-1.71a1,1,0,0,1-1.07-1.06l0.21-152.65a1,1,0,0,1,1.07-1.06h1.28a1,1,0,0,1,1.07,1.06l0.21,106,66.56-61.06a3.12,3.12,0,0,1,1.5-.42h1.93c1.07,0,1.28.64,0.43,1.27l-44.3,40.92,48.58,65.73c0.43,0.64.21,1.27-.86,1.27h-2.35a1.3,1.3,0,0,1-1.28-.64L715.24,133Z" transform="translate(-11.39 -42.65)"/><path class="cls-3" d="M376.59,124.79" transform="translate(-11.39 -42.65)"/><path class="cls-2" d="M216.88,101.37a2.41,2.41,0,0,0-.88-2.5l-10.67-8.24a2.39,2.39,0,0,1-.95-1.85c0-.37,0-0.75,0-1.13,0-.92-0.14-1.83-0.26-2.73a2.44,2.44,0,0,1,.63-2L214,73.11a2.41,2.41,0,0,0,.48-2.61,47.05,47.05,0,0,0-2.55-5,2.41,2.41,0,0,0-2.39-1.15l-13.4,1.72a2.43,2.43,0,0,1-2-.68,33.48,33.48,0,0,0-3-2.59,2.07,2.07,0,0,1-.84-1.6l-0.36-13.68a2.4,2.4,0,0,0-1.5-2.18,47,47,0,0,0-5.36-1.75,2.41,2.41,0,0,0-2.5.88l-8.24,10.67a2.4,2.4,0,0,1-1.85.95l-1.13,0c-0.92,0-1.83.14-2.73,0.26a2.44,2.44,0,0,1-2-.63l-9.79-9.29a2.41,2.41,0,0,0-2.61-.48,47.05,47.05,0,0,0-5,2.55A2.41,2.41,0,0,0,146,50.91l1.72,13.4a2.43,2.43,0,0,1-.68,2,33.49,33.49,0,0,0-2.59,3,2.07,2.07,0,0,1-1.6.84l-13.68.36A2.4,2.4,0,0,0,127,72a47,47,0,0,0-1.75,5.36,2.41,2.41,0,0,0,.88,2.5l10.67,8.24a2.4,2.4,0,0,1,.95,1.85c0,0.37,0,.75,0,1.13,0,0.92.14,1.83,0.26,2.73a2.44,2.44,0,0,1-.63,2l-9.29,9.79a2.41,2.41,0,0,0-.48,2.61,47.06,47.06,0,0,0,2.55,5,2.41,2.41,0,0,0,2.39,1.15L146,112.7a2.43,2.43,0,0,1,2,.68,33.48,33.48,0,0,0,2.9,2.49,2.42,2.42,0,0,1,1,1.86l0.35,13.51a2.4,2.4,0,0,0,1.5,2.18,47,47,0,0,0,5.36,1.75,2.41,2.41,0,0,0,2.5-.88l8.24-10.67a2.4,2.4,0,0,1,1.85-.95l1.13,0c0.92,0,1.83-.14,2.73-0.26a2.44,2.44,0,0,1,2,.63l9.79,9.29a2.41,2.41,0,0,0,2.61.48,47,47,0,0,0,5-2.55,2.41,2.41,0,0,0,1.15-2.39l-1.72-13.39a2.43,2.43,0,0,1,.68-2,33.49,33.49,0,0,0,2.49-2.9,2.42,2.42,0,0,1,1.86-1l13.51-.35a2.4,2.4,0,0,0,2.18-1.5A47,47,0,0,0,216.88,101.37Zm-51.71,4.42a17.94,17.94,0,1,1,23-10.78A17.94,17.94,0,0,1,165.16,105.79Z" transform="translate(-11.39 -42.65)"/><path class="cls-2" d="M100.77,88.79a1.75,1.75,0,0,0-1.21-1.49l-9.3-3a1.74,1.74,0,0,1-1.1-1q-0.14-.38-0.3-0.76c-0.26-.62-0.54-1.22-0.85-1.8a1.77,1.77,0,0,1-.07-1.54l3.93-9a1.75,1.75,0,0,0-.31-1.9,34.12,34.12,0,0,0-3-2.8,1.74,1.74,0,0,0-1.91-.19l-8.71,4.47a1.76,1.76,0,0,1-1.52,0,24.28,24.28,0,0,0-2.71-1,1.5,1.5,0,0,1-1-.88l-3.61-9.24a1.74,1.74,0,0,0-1.56-1.12,34.07,34.07,0,0,0-4.08.13A1.75,1.75,0,0,0,62,58.92l-3,9.3a1.74,1.74,0,0,1-1,1.1l-0.76.3c-0.62.26-1.22,0.54-1.8,0.85a1.77,1.77,0,0,1-1.54.07l-9-3.93a1.75,1.75,0,0,0-1.9.31,34.12,34.12,0,0,0-2.8,3A1.74,1.74,0,0,0,40,71.81l4.47,8.71a1.76,1.76,0,0,1,0,1.52,24.28,24.28,0,0,0-1,2.71,1.5,1.5,0,0,1-.88,1L33.4,89.33a1.74,1.74,0,0,0-1.12,1.56A34.06,34.06,0,0,0,32.41,95a1.75,1.75,0,0,0,1.21,1.49l9.3,3a1.74,1.74,0,0,1,1.1,1q0.14,0.38.3,0.76c0.26,0.62.54,1.22,0.85,1.8a1.77,1.77,0,0,1,.07,1.54l-3.93,9a1.75,1.75,0,0,0,.31,1.9,34.12,34.12,0,0,0,3,2.8,1.74,1.74,0,0,0,1.91.19L55.23,114a1.77,1.77,0,0,1,1.53,0,24.27,24.27,0,0,0,2.59,1,1.76,1.76,0,0,1,1.12,1L64,125.07a1.74,1.74,0,0,0,1.56,1.12,34.07,34.07,0,0,0,4.08-.13,1.75,1.75,0,0,0,1.49-1.21l3-9.3a1.74,1.74,0,0,1,1-1.1l0.76-.3c0.62-.26,1.22-0.54,1.8-0.85a1.77,1.77,0,0,1,1.54-.07l9,3.93a1.75,1.75,0,0,0,1.9-.31,34.11,34.11,0,0,0,2.8-3,1.74,1.74,0,0,0,.19-1.91l-4.47-8.71a1.77,1.77,0,0,1,0-1.53,24.28,24.28,0,0,0,1-2.59,1.76,1.76,0,0,1,1-1.12l9.13-3.57a1.74,1.74,0,0,0,1.12-1.56A34.08,34.08,0,0,0,100.77,88.79ZM66.59,104.53a13,13,0,1,1,13-13A13,13,0,0,1,66.59,104.53Z" transform="translate(-11.39 -42.65)"/><path class="cls-4" d="M104.08,191.38a8.44,8.44,0,0,0,8.05,8.1c5.71,0.2,6.68-4.08,12.19-4.08,6.25,0,6.54,4.28,12.14,4.08a8.2,8.2,0,0,0,7.88-8.1,8.06,8.06,0,0,0-7.88-8.11c-5.58-.25-5.66,4.1-12.11,4.1-6,0-6.83-4.38-12.22-4.08A8.38,8.38,0,0,0,104.08,191.38Z" transform="translate(-11.39 -42.65)"/><ellipse class="cls-5" cx="100.75" cy="148.74" rx="4" ry="3.96"/><ellipse class="cls-5" cx="125.07" cy="148.74" rx="4" ry="3.96"/><path class="cls-4" d="M54.58,178.85a8.39,8.39,0,0,0,5.7,9.87c5.47,1.63,7.5-2.26,12.84-.87,6,1.58,5.22,5.79,10.68,7a8.25,8.25,0,0,0,9.7-5.84A8,8,0,0,0,88,179.19c-5.33-1.65-6.52,2.53-12.76.91-5.79-1.51-5.47-6-10.76-7A8.43,8.43,0,0,0,54.58,178.85Z" transform="translate(-11.39 -42.65)"/><path class="cls-5" d="M66.23,181.9a4,4,0,0,1-4.89,2.82,4,4,0,0,1-2.85-4.84,4,4,0,0,1,4.89-2.82A4,4,0,0,1,66.23,181.9Z" transform="translate(-11.39 -42.65)"/><path class="cls-5" d="M89.75,188a4,4,0,0,1-4.89,2.82A4,4,0,0,1,82,186a4,4,0,0,1,4.89-2.82A4,4,0,0,1,89.75,188Z" transform="translate(-11.39 -42.65)"/><path class="cls-4" d="M14.51,145.9A8.37,8.37,0,0,0,15,157.27c4.1,4,7.71,1.45,11.79,5.14,4.63,4.18,1.95,7.53,6.23,11.13a8.27,8.27,0,0,0,11.32-.71A8,8,0,0,0,44,161.57c-4-3.92-7-.76-11.74-5.07-4.44-4-2.1-7.8-6.29-11.19A8.46,8.46,0,0,0,14.51,145.9Z" transform="translate(-11.39 -42.65)"/><path class="cls-5" d="M23.44,154a4,4,0,0,1-5.65.25,4,4,0,0,1-.28-5.61,4,4,0,0,1,5.65-.25A4,4,0,0,1,23.44,154Z" transform="translate(-11.39 -42.65)"/><path class="cls-5" d="M41.46,170.24a4,4,0,0,1-5.65.25,4,4,0,0,1-.28-5.61,4,4,0,0,1,5.65-.25A4,4,0,0,1,41.46,170.24Z" transform="translate(-11.39 -42.65)"/><path class="cls-4" d="M230.49,145.9a8.37,8.37,0,0,1-.48,11.37c-4.1,4-7.71,1.45-11.79,5.14-4.63,4.18-1.95,7.53-6.23,11.13a8.27,8.27,0,0,1-11.32-.71,8,8,0,0,1,.35-11.26c4-3.92,7-.76,11.74-5.07,4.44-4,2.1-7.8,6.29-11.19A8.46,8.46,0,0,1,230.49,145.9Z" transform="translate(-11.39 -42.65)"/><path class="cls-5" d="M221.56,154a4,4,0,0,0,5.65.25,4,4,0,0,0,.28-5.61,4,4,0,0,0-5.65-.25A4,4,0,0,0,221.56,154Z" transform="translate(-11.39 -42.65)"/><path class="cls-5" d="M203.54,170.24a4,4,0,0,0,5.65.25,4,4,0,0,0,.28-5.61,4,4,0,0,0-5.65-.25A4,4,0,0,0,203.54,170.24Z" transform="translate(-11.39 -42.65)"/><path class="cls-4" d="M192.13,181.21a8.39,8.39,0,0,1-5.7,9.87c-5.47,1.63-7.5-2.26-12.84-.87-6,1.58-5.22,5.79-10.68,7a8.25,8.25,0,0,1-9.7-5.84,8,8,0,0,1,5.53-9.83c5.33-1.65,6.52,2.53,12.76.91,5.79-1.51,5.47-6,10.76-7A8.43,8.43,0,0,1,192.13,181.21Z" transform="translate(-11.39 -42.65)"/><path class="cls-5" d="M180.48,184.26a4,4,0,0,0,4.89,2.82,4,4,0,0,0,2.85-4.84,4,4,0,0,0-4.89-2.82A4,4,0,0,0,180.48,184.26Z" transform="translate(-11.39 -42.65)"/><path class="cls-5" d="M157,190.4a4,4,0,0,0,4.89,2.82,4,4,0,0,0,2.85-4.84,4,4,0,0,0-4.89-2.82A4,4,0,0,0,157,190.4Z" transform="translate(-11.39 -42.65)"/><path class="cls-6" d="M63.89,66.72" transform="translate(-11.39 -42.65)"/><path class="cls-6" d="M5.47,21.05" transform="translate(-11.39 -42.65)"/><text x="-11.39" y="-42.65"/></svg>